G04 #@! TF.GenerationSoftware,KiCad,Pcbnew,(5.1.6)-1*
G04 #@! TF.CreationDate,2021-04-18T21:34:56+02:00*
G04 #@! TF.ProjectId,eduRov_motherboard,65647552-6f76-45f6-9d6f-74686572626f,rev?*
G04 #@! TF.SameCoordinates,Original*
G04 #@! TF.FileFunction,Profile,NP*
%FSLAX46Y46*%
G04 Gerber Fmt 4.6, Leading zero omitted, Abs format (unit mm)*
G04 Created by KiCad (PCBNEW (5.1.6)-1) date 2021-04-18 21:34:56*
%MOMM*%
%LPD*%
G01*
G04 APERTURE LIST*
G04 #@! TA.AperFunction,Profile*
%ADD10C,0.100000*%
G04 #@! TD*
G04 APERTURE END LIST*
D10*
X55830000Y-55880000D02*
X55830000Y-134620000D01*
X123633665Y-129475665D02*
G75*
G02*
X126047500Y-131889500I0J-2413835D01*
G01*
X108774665Y-131890335D02*
G75*
G02*
X111188500Y-129476500I2413835J0D01*
G01*
X111189335Y-154115335D02*
G75*
G02*
X108775500Y-151701500I0J2413835D01*
G01*
X126048335Y-151700665D02*
G75*
G02*
X123634500Y-154114500I-2413835J0D01*
G01*
X111188500Y-154114500D02*
X123634500Y-154114500D01*
X108774665Y-131890335D02*
X108775500Y-151701500D01*
X123633665Y-129475665D02*
X111188500Y-129476500D01*
X126048335Y-151700665D02*
X126047500Y-131889500D01*
X78740000Y-157530000D02*
X200660000Y-157530000D01*
X200660000Y-32970000D02*
X78740000Y-32970000D01*
X223570000Y-134620000D02*
X223570000Y-55880000D01*
X55830000Y-55880000D02*
G75*
G02*
X78740000Y-32970000I22910000J0D01*
G01*
X78740000Y-157530000D02*
G75*
G02*
X55830000Y-134620000I0J22910000D01*
G01*
X223570000Y-134620000D02*
G75*
G02*
X200660000Y-157530000I-22910000J0D01*
G01*
X200660000Y-32970000D02*
G75*
G02*
X223570000Y-55880000I0J-22910000D01*
G01*
X171298270Y-87376000D02*
G75*
G03*
X171298270Y-87376000I-9754270J0D01*
G01*
X215900000Y-55880000D02*
G75*
G03*
X215900000Y-55880000I-1524000J0D01*
G01*
X67945000Y-46164500D02*
G75*
G03*
X67945000Y-46164500I-1524000J0D01*
G01*
X215900000Y-143764000D02*
G75*
G03*
X215900000Y-143764000I-1524000J0D01*
G01*
X64833500Y-132842000D02*
G75*
G03*
X64833500Y-132842000I-1524000J0D01*
G01*
M02*
