G04 #@! TF.GenerationSoftware,KiCad,Pcbnew,(5.1.6)-1*
G04 #@! TF.CreationDate,2021-04-18T21:34:56+02:00*
G04 #@! TF.ProjectId,eduRov_motherboard,65647552-6f76-45f6-9d6f-74686572626f,rev?*
G04 #@! TF.SameCoordinates,Original*
G04 #@! TF.FileFunction,Copper,L1,Top*
G04 #@! TF.FilePolarity,Positive*
%FSLAX46Y46*%
G04 Gerber Fmt 4.6, Leading zero omitted, Abs format (unit mm)*
G04 Created by KiCad (PCBNEW (5.1.6)-1) date 2021-04-18 21:34:56*
%MOMM*%
%LPD*%
G01*
G04 APERTURE LIST*
G04 #@! TA.AperFunction,ComponentPad*
%ADD10O,1.700000X1.700000*%
G04 #@! TD*
G04 #@! TA.AperFunction,ComponentPad*
%ADD11R,1.700000X1.700000*%
G04 #@! TD*
G04 #@! TA.AperFunction,ComponentPad*
%ADD12C,6.000000*%
G04 #@! TD*
G04 #@! TA.AperFunction,ComponentPad*
%ADD13O,1.750000X1.200000*%
G04 #@! TD*
G04 #@! TA.AperFunction,ComponentPad*
%ADD14O,2.000000X1.905000*%
G04 #@! TD*
G04 #@! TA.AperFunction,ComponentPad*
%ADD15R,2.000000X1.905000*%
G04 #@! TD*
G04 #@! TA.AperFunction,ComponentPad*
%ADD16C,3.000000*%
G04 #@! TD*
G04 #@! TA.AperFunction,ComponentPad*
%ADD17R,3.000000X3.000000*%
G04 #@! TD*
G04 #@! TA.AperFunction,ComponentPad*
%ADD18O,1.800000X3.600000*%
G04 #@! TD*
G04 #@! TA.AperFunction,ComponentPad*
%ADD19O,1.600000X1.600000*%
G04 #@! TD*
G04 #@! TA.AperFunction,ComponentPad*
%ADD20C,1.600000*%
G04 #@! TD*
G04 #@! TA.AperFunction,ComponentPad*
%ADD21O,1.400000X1.400000*%
G04 #@! TD*
G04 #@! TA.AperFunction,ComponentPad*
%ADD22C,1.400000*%
G04 #@! TD*
G04 #@! TA.AperFunction,ComponentPad*
%ADD23C,2.400000*%
G04 #@! TD*
G04 #@! TA.AperFunction,ComponentPad*
%ADD24R,2.400000X2.400000*%
G04 #@! TD*
G04 #@! TA.AperFunction,ComponentPad*
%ADD25O,2.200000X2.200000*%
G04 #@! TD*
G04 #@! TA.AperFunction,ComponentPad*
%ADD26R,2.200000X2.200000*%
G04 #@! TD*
G04 #@! TA.AperFunction,ComponentPad*
%ADD27C,0.100000*%
G04 #@! TD*
G04 #@! TA.AperFunction,ComponentPad*
%ADD28R,1.600000X1.600000*%
G04 #@! TD*
G04 #@! TA.AperFunction,ViaPad*
%ADD29C,1.000000*%
G04 #@! TD*
G04 #@! TA.AperFunction,Conductor*
%ADD30C,0.800000*%
G04 #@! TD*
G04 #@! TA.AperFunction,Conductor*
%ADD31C,1.000000*%
G04 #@! TD*
G04 #@! TA.AperFunction,Conductor*
%ADD32C,0.500000*%
G04 #@! TD*
G04 #@! TA.AperFunction,Conductor*
%ADD33C,0.600000*%
G04 #@! TD*
G04 #@! TA.AperFunction,Conductor*
%ADD34C,2.000000*%
G04 #@! TD*
G04 #@! TA.AperFunction,Conductor*
%ADD35C,0.254000*%
G04 #@! TD*
G04 APERTURE END LIST*
D10*
X105410000Y-103124000D03*
X115570000Y-103124000D03*
X107950000Y-103124000D03*
X125730000Y-100584000D03*
D11*
X80010000Y-100584000D03*
D10*
X118110000Y-100584000D03*
X128270000Y-100584000D03*
X100330000Y-103124000D03*
X120650000Y-100584000D03*
X85090000Y-100584000D03*
X120650000Y-103124000D03*
X82550000Y-103124000D03*
X82550000Y-100584000D03*
X95250000Y-103124000D03*
D12*
X133140000Y-101854000D03*
D10*
X102870000Y-103124000D03*
X123190000Y-100584000D03*
X110490000Y-103124000D03*
X107950000Y-100584000D03*
X110490000Y-100584000D03*
X102870000Y-100584000D03*
X97790000Y-100584000D03*
X87630000Y-103124000D03*
X92710000Y-103124000D03*
D12*
X75140000Y-150854000D03*
D10*
X128270000Y-103124000D03*
D12*
X75140000Y-101854000D03*
D10*
X87630000Y-100584000D03*
X90170000Y-100584000D03*
X123190000Y-103124000D03*
X97790000Y-103124000D03*
X85090000Y-103124000D03*
X113030000Y-103124000D03*
X125730000Y-103124000D03*
X95250000Y-100584000D03*
X113030000Y-100584000D03*
X80010000Y-103124000D03*
X100330000Y-100584000D03*
X92710000Y-100584000D03*
D12*
X133140000Y-150854000D03*
D10*
X118110000Y-103124000D03*
X90170000Y-103124000D03*
X115570000Y-100584000D03*
X105410000Y-100584000D03*
D13*
X61722000Y-80739500D03*
X61722000Y-78739500D03*
X61722000Y-76739500D03*
G04 #@! TA.AperFunction,ComponentPad*
G36*
G01*
X61096999Y-74139500D02*
X62347001Y-74139500D01*
G75*
G02*
X62597000Y-74389499I0J-249999D01*
G01*
X62597000Y-75089501D01*
G75*
G02*
X62347001Y-75339500I-249999J0D01*
G01*
X61096999Y-75339500D01*
G75*
G02*
X60847000Y-75089501I0J249999D01*
G01*
X60847000Y-74389499D01*
G75*
G02*
X61096999Y-74139500I249999J0D01*
G01*
G37*
G04 #@! TD.AperFunction*
D14*
X69278500Y-83820000D03*
X69278500Y-81280000D03*
D15*
X69278500Y-78740000D03*
D16*
X197802500Y-41418500D03*
D17*
X197802500Y-46418500D03*
D16*
X159766000Y-41418500D03*
D17*
X159766000Y-46418500D03*
D16*
X121920000Y-41418500D03*
D17*
X121920000Y-46418500D03*
D16*
X83820000Y-41418500D03*
D17*
X83820000Y-46418500D03*
D13*
X174244000Y-145128500D03*
X174244000Y-143128500D03*
X174244000Y-141128500D03*
G04 #@! TA.AperFunction,ComponentPad*
G36*
G01*
X173618999Y-138528500D02*
X174869001Y-138528500D01*
G75*
G02*
X175119000Y-138778499I0J-249999D01*
G01*
X175119000Y-139478501D01*
G75*
G02*
X174869001Y-139728500I-249999J0D01*
G01*
X173618999Y-139728500D01*
G75*
G02*
X173369000Y-139478501I0J249999D01*
G01*
X173369000Y-138778499D01*
G75*
G02*
X173618999Y-138528500I249999J0D01*
G01*
G37*
G04 #@! TD.AperFunction*
X174244000Y-124555000D03*
X174244000Y-122555000D03*
G04 #@! TA.AperFunction,ComponentPad*
G36*
G01*
X173618999Y-119955000D02*
X174869001Y-119955000D01*
G75*
G02*
X175119000Y-120204999I0J-249999D01*
G01*
X175119000Y-120905001D01*
G75*
G02*
X174869001Y-121155000I-249999J0D01*
G01*
X173618999Y-121155000D01*
G75*
G02*
X173369000Y-120905001I0J249999D01*
G01*
X173369000Y-120204999D01*
G75*
G02*
X173618999Y-119955000I249999J0D01*
G01*
G37*
G04 #@! TD.AperFunction*
X174180500Y-109410000D03*
X174180500Y-107410000D03*
G04 #@! TA.AperFunction,ComponentPad*
G36*
G01*
X173555499Y-104810000D02*
X174805501Y-104810000D01*
G75*
G02*
X175055500Y-105059999I0J-249999D01*
G01*
X175055500Y-105760001D01*
G75*
G02*
X174805501Y-106010000I-249999J0D01*
G01*
X173555499Y-106010000D01*
G75*
G02*
X173305500Y-105760001I0J249999D01*
G01*
X173305500Y-105059999D01*
G75*
G02*
X173555499Y-104810000I249999J0D01*
G01*
G37*
G04 #@! TD.AperFunction*
D18*
X74558000Y-57150000D03*
X76258000Y-62230000D03*
X77958000Y-57150000D03*
X79658000Y-62230000D03*
X81358000Y-57150000D03*
X83058000Y-62230000D03*
X84758000Y-57150000D03*
X86458000Y-62230000D03*
X88158000Y-57150000D03*
X89858000Y-62230000D03*
X91558000Y-57150000D03*
X112580000Y-57150000D03*
X114280000Y-62230000D03*
X115980000Y-57150000D03*
X117680000Y-62230000D03*
X119380000Y-57150000D03*
X121080000Y-62230000D03*
X122780000Y-57150000D03*
X124480000Y-62230000D03*
X126180000Y-57150000D03*
X127880000Y-62230000D03*
X129580000Y-57150000D03*
X150504000Y-57150000D03*
X152204000Y-62230000D03*
X153904000Y-57150000D03*
X155604000Y-62230000D03*
X157304000Y-57150000D03*
X159004000Y-62230000D03*
X160704000Y-57150000D03*
X162404000Y-62230000D03*
X164104000Y-57150000D03*
X165804000Y-62230000D03*
X167504000Y-57150000D03*
X188604000Y-57150000D03*
X190304000Y-62230000D03*
X192004000Y-57150000D03*
X193704000Y-62230000D03*
X195404000Y-57150000D03*
X197104000Y-62230000D03*
X198804000Y-57150000D03*
X200504000Y-62230000D03*
X202204000Y-57150000D03*
X203904000Y-62230000D03*
X205604000Y-57150000D03*
D19*
X73596500Y-89154000D03*
D20*
X63436500Y-89154000D03*
D19*
X134429500Y-74930000D03*
D20*
X134429500Y-85090000D03*
D19*
X137477500Y-85090000D03*
D20*
X137477500Y-74930000D03*
D19*
X140525500Y-74930000D03*
D20*
X140525500Y-85090000D03*
D19*
X143573500Y-85090000D03*
D20*
X143573500Y-74930000D03*
D19*
X73533000Y-92265500D03*
D20*
X63373000Y-92265500D03*
D19*
X65278000Y-96266000D03*
D20*
X65278000Y-106426000D03*
D19*
X68326000Y-106426000D03*
D20*
X68326000Y-96266000D03*
D19*
X59182000Y-96266000D03*
D20*
X59182000Y-106426000D03*
D19*
X62230000Y-106426000D03*
D20*
X62230000Y-96266000D03*
G04 #@! TA.AperFunction,SMDPad,CuDef*
G36*
G01*
X64032000Y-65255000D02*
X64032000Y-65555000D01*
G75*
G02*
X63882000Y-65705000I-150000J0D01*
G01*
X62232000Y-65705000D01*
G75*
G02*
X62082000Y-65555000I0J150000D01*
G01*
X62082000Y-65255000D01*
G75*
G02*
X62232000Y-65105000I150000J0D01*
G01*
X63882000Y-65105000D01*
G75*
G02*
X64032000Y-65255000I0J-150000D01*
G01*
G37*
G04 #@! TD.AperFunction*
G04 #@! TA.AperFunction,SMDPad,CuDef*
G36*
G01*
X64032000Y-63985000D02*
X64032000Y-64285000D01*
G75*
G02*
X63882000Y-64435000I-150000J0D01*
G01*
X62232000Y-64435000D01*
G75*
G02*
X62082000Y-64285000I0J150000D01*
G01*
X62082000Y-63985000D01*
G75*
G02*
X62232000Y-63835000I150000J0D01*
G01*
X63882000Y-63835000D01*
G75*
G02*
X64032000Y-63985000I0J-150000D01*
G01*
G37*
G04 #@! TD.AperFunction*
G04 #@! TA.AperFunction,SMDPad,CuDef*
G36*
G01*
X64032000Y-62715000D02*
X64032000Y-63015000D01*
G75*
G02*
X63882000Y-63165000I-150000J0D01*
G01*
X62232000Y-63165000D01*
G75*
G02*
X62082000Y-63015000I0J150000D01*
G01*
X62082000Y-62715000D01*
G75*
G02*
X62232000Y-62565000I150000J0D01*
G01*
X63882000Y-62565000D01*
G75*
G02*
X64032000Y-62715000I0J-150000D01*
G01*
G37*
G04 #@! TD.AperFunction*
G04 #@! TA.AperFunction,SMDPad,CuDef*
G36*
G01*
X64032000Y-61445000D02*
X64032000Y-61745000D01*
G75*
G02*
X63882000Y-61895000I-150000J0D01*
G01*
X62232000Y-61895000D01*
G75*
G02*
X62082000Y-61745000I0J150000D01*
G01*
X62082000Y-61445000D01*
G75*
G02*
X62232000Y-61295000I150000J0D01*
G01*
X63882000Y-61295000D01*
G75*
G02*
X64032000Y-61445000I0J-150000D01*
G01*
G37*
G04 #@! TD.AperFunction*
G04 #@! TA.AperFunction,SMDPad,CuDef*
G36*
G01*
X68982000Y-61445000D02*
X68982000Y-61745000D01*
G75*
G02*
X68832000Y-61895000I-150000J0D01*
G01*
X67182000Y-61895000D01*
G75*
G02*
X67032000Y-61745000I0J150000D01*
G01*
X67032000Y-61445000D01*
G75*
G02*
X67182000Y-61295000I150000J0D01*
G01*
X68832000Y-61295000D01*
G75*
G02*
X68982000Y-61445000I0J-150000D01*
G01*
G37*
G04 #@! TD.AperFunction*
G04 #@! TA.AperFunction,SMDPad,CuDef*
G36*
G01*
X68982000Y-62715000D02*
X68982000Y-63015000D01*
G75*
G02*
X68832000Y-63165000I-150000J0D01*
G01*
X67182000Y-63165000D01*
G75*
G02*
X67032000Y-63015000I0J150000D01*
G01*
X67032000Y-62715000D01*
G75*
G02*
X67182000Y-62565000I150000J0D01*
G01*
X68832000Y-62565000D01*
G75*
G02*
X68982000Y-62715000I0J-150000D01*
G01*
G37*
G04 #@! TD.AperFunction*
G04 #@! TA.AperFunction,SMDPad,CuDef*
G36*
G01*
X68982000Y-63985000D02*
X68982000Y-64285000D01*
G75*
G02*
X68832000Y-64435000I-150000J0D01*
G01*
X67182000Y-64435000D01*
G75*
G02*
X67032000Y-64285000I0J150000D01*
G01*
X67032000Y-63985000D01*
G75*
G02*
X67182000Y-63835000I150000J0D01*
G01*
X68832000Y-63835000D01*
G75*
G02*
X68982000Y-63985000I0J-150000D01*
G01*
G37*
G04 #@! TD.AperFunction*
G04 #@! TA.AperFunction,SMDPad,CuDef*
G36*
G01*
X68982000Y-65255000D02*
X68982000Y-65555000D01*
G75*
G02*
X68832000Y-65705000I-150000J0D01*
G01*
X67182000Y-65705000D01*
G75*
G02*
X67032000Y-65555000I0J150000D01*
G01*
X67032000Y-65255000D01*
G75*
G02*
X67182000Y-65105000I150000J0D01*
G01*
X68832000Y-65105000D01*
G75*
G02*
X68982000Y-65255000I0J-150000D01*
G01*
G37*
G04 #@! TD.AperFunction*
G04 #@! TA.AperFunction,SMDPad,CuDef*
G36*
G01*
X100797000Y-65509000D02*
X100797000Y-65809000D01*
G75*
G02*
X100647000Y-65959000I-150000J0D01*
G01*
X98997000Y-65959000D01*
G75*
G02*
X98847000Y-65809000I0J150000D01*
G01*
X98847000Y-65509000D01*
G75*
G02*
X98997000Y-65359000I150000J0D01*
G01*
X100647000Y-65359000D01*
G75*
G02*
X100797000Y-65509000I0J-150000D01*
G01*
G37*
G04 #@! TD.AperFunction*
G04 #@! TA.AperFunction,SMDPad,CuDef*
G36*
G01*
X100797000Y-64239000D02*
X100797000Y-64539000D01*
G75*
G02*
X100647000Y-64689000I-150000J0D01*
G01*
X98997000Y-64689000D01*
G75*
G02*
X98847000Y-64539000I0J150000D01*
G01*
X98847000Y-64239000D01*
G75*
G02*
X98997000Y-64089000I150000J0D01*
G01*
X100647000Y-64089000D01*
G75*
G02*
X100797000Y-64239000I0J-150000D01*
G01*
G37*
G04 #@! TD.AperFunction*
G04 #@! TA.AperFunction,SMDPad,CuDef*
G36*
G01*
X100797000Y-62969000D02*
X100797000Y-63269000D01*
G75*
G02*
X100647000Y-63419000I-150000J0D01*
G01*
X98997000Y-63419000D01*
G75*
G02*
X98847000Y-63269000I0J150000D01*
G01*
X98847000Y-62969000D01*
G75*
G02*
X98997000Y-62819000I150000J0D01*
G01*
X100647000Y-62819000D01*
G75*
G02*
X100797000Y-62969000I0J-150000D01*
G01*
G37*
G04 #@! TD.AperFunction*
G04 #@! TA.AperFunction,SMDPad,CuDef*
G36*
G01*
X100797000Y-61699000D02*
X100797000Y-61999000D01*
G75*
G02*
X100647000Y-62149000I-150000J0D01*
G01*
X98997000Y-62149000D01*
G75*
G02*
X98847000Y-61999000I0J150000D01*
G01*
X98847000Y-61699000D01*
G75*
G02*
X98997000Y-61549000I150000J0D01*
G01*
X100647000Y-61549000D01*
G75*
G02*
X100797000Y-61699000I0J-150000D01*
G01*
G37*
G04 #@! TD.AperFunction*
G04 #@! TA.AperFunction,SMDPad,CuDef*
G36*
G01*
X105747000Y-61699000D02*
X105747000Y-61999000D01*
G75*
G02*
X105597000Y-62149000I-150000J0D01*
G01*
X103947000Y-62149000D01*
G75*
G02*
X103797000Y-61999000I0J150000D01*
G01*
X103797000Y-61699000D01*
G75*
G02*
X103947000Y-61549000I150000J0D01*
G01*
X105597000Y-61549000D01*
G75*
G02*
X105747000Y-61699000I0J-150000D01*
G01*
G37*
G04 #@! TD.AperFunction*
G04 #@! TA.AperFunction,SMDPad,CuDef*
G36*
G01*
X105747000Y-62969000D02*
X105747000Y-63269000D01*
G75*
G02*
X105597000Y-63419000I-150000J0D01*
G01*
X103947000Y-63419000D01*
G75*
G02*
X103797000Y-63269000I0J150000D01*
G01*
X103797000Y-62969000D01*
G75*
G02*
X103947000Y-62819000I150000J0D01*
G01*
X105597000Y-62819000D01*
G75*
G02*
X105747000Y-62969000I0J-150000D01*
G01*
G37*
G04 #@! TD.AperFunction*
G04 #@! TA.AperFunction,SMDPad,CuDef*
G36*
G01*
X105747000Y-64239000D02*
X105747000Y-64539000D01*
G75*
G02*
X105597000Y-64689000I-150000J0D01*
G01*
X103947000Y-64689000D01*
G75*
G02*
X103797000Y-64539000I0J150000D01*
G01*
X103797000Y-64239000D01*
G75*
G02*
X103947000Y-64089000I150000J0D01*
G01*
X105597000Y-64089000D01*
G75*
G02*
X105747000Y-64239000I0J-150000D01*
G01*
G37*
G04 #@! TD.AperFunction*
G04 #@! TA.AperFunction,SMDPad,CuDef*
G36*
G01*
X105747000Y-65509000D02*
X105747000Y-65809000D01*
G75*
G02*
X105597000Y-65959000I-150000J0D01*
G01*
X103947000Y-65959000D01*
G75*
G02*
X103797000Y-65809000I0J150000D01*
G01*
X103797000Y-65509000D01*
G75*
G02*
X103947000Y-65359000I150000J0D01*
G01*
X105597000Y-65359000D01*
G75*
G02*
X105747000Y-65509000I0J-150000D01*
G01*
G37*
G04 #@! TD.AperFunction*
G04 #@! TA.AperFunction,SMDPad,CuDef*
G36*
G01*
X138868020Y-65272780D02*
X138868020Y-65572780D01*
G75*
G02*
X138718020Y-65722780I-150000J0D01*
G01*
X137068020Y-65722780D01*
G75*
G02*
X136918020Y-65572780I0J150000D01*
G01*
X136918020Y-65272780D01*
G75*
G02*
X137068020Y-65122780I150000J0D01*
G01*
X138718020Y-65122780D01*
G75*
G02*
X138868020Y-65272780I0J-150000D01*
G01*
G37*
G04 #@! TD.AperFunction*
G04 #@! TA.AperFunction,SMDPad,CuDef*
G36*
G01*
X138868020Y-64002780D02*
X138868020Y-64302780D01*
G75*
G02*
X138718020Y-64452780I-150000J0D01*
G01*
X137068020Y-64452780D01*
G75*
G02*
X136918020Y-64302780I0J150000D01*
G01*
X136918020Y-64002780D01*
G75*
G02*
X137068020Y-63852780I150000J0D01*
G01*
X138718020Y-63852780D01*
G75*
G02*
X138868020Y-64002780I0J-150000D01*
G01*
G37*
G04 #@! TD.AperFunction*
G04 #@! TA.AperFunction,SMDPad,CuDef*
G36*
G01*
X138868020Y-62732780D02*
X138868020Y-63032780D01*
G75*
G02*
X138718020Y-63182780I-150000J0D01*
G01*
X137068020Y-63182780D01*
G75*
G02*
X136918020Y-63032780I0J150000D01*
G01*
X136918020Y-62732780D01*
G75*
G02*
X137068020Y-62582780I150000J0D01*
G01*
X138718020Y-62582780D01*
G75*
G02*
X138868020Y-62732780I0J-150000D01*
G01*
G37*
G04 #@! TD.AperFunction*
G04 #@! TA.AperFunction,SMDPad,CuDef*
G36*
G01*
X138868020Y-61462780D02*
X138868020Y-61762780D01*
G75*
G02*
X138718020Y-61912780I-150000J0D01*
G01*
X137068020Y-61912780D01*
G75*
G02*
X136918020Y-61762780I0J150000D01*
G01*
X136918020Y-61462780D01*
G75*
G02*
X137068020Y-61312780I150000J0D01*
G01*
X138718020Y-61312780D01*
G75*
G02*
X138868020Y-61462780I0J-150000D01*
G01*
G37*
G04 #@! TD.AperFunction*
G04 #@! TA.AperFunction,SMDPad,CuDef*
G36*
G01*
X143818020Y-61462780D02*
X143818020Y-61762780D01*
G75*
G02*
X143668020Y-61912780I-150000J0D01*
G01*
X142018020Y-61912780D01*
G75*
G02*
X141868020Y-61762780I0J150000D01*
G01*
X141868020Y-61462780D01*
G75*
G02*
X142018020Y-61312780I150000J0D01*
G01*
X143668020Y-61312780D01*
G75*
G02*
X143818020Y-61462780I0J-150000D01*
G01*
G37*
G04 #@! TD.AperFunction*
G04 #@! TA.AperFunction,SMDPad,CuDef*
G36*
G01*
X143818020Y-62732780D02*
X143818020Y-63032780D01*
G75*
G02*
X143668020Y-63182780I-150000J0D01*
G01*
X142018020Y-63182780D01*
G75*
G02*
X141868020Y-63032780I0J150000D01*
G01*
X141868020Y-62732780D01*
G75*
G02*
X142018020Y-62582780I150000J0D01*
G01*
X143668020Y-62582780D01*
G75*
G02*
X143818020Y-62732780I0J-150000D01*
G01*
G37*
G04 #@! TD.AperFunction*
G04 #@! TA.AperFunction,SMDPad,CuDef*
G36*
G01*
X143818020Y-64002780D02*
X143818020Y-64302780D01*
G75*
G02*
X143668020Y-64452780I-150000J0D01*
G01*
X142018020Y-64452780D01*
G75*
G02*
X141868020Y-64302780I0J150000D01*
G01*
X141868020Y-64002780D01*
G75*
G02*
X142018020Y-63852780I150000J0D01*
G01*
X143668020Y-63852780D01*
G75*
G02*
X143818020Y-64002780I0J-150000D01*
G01*
G37*
G04 #@! TD.AperFunction*
G04 #@! TA.AperFunction,SMDPad,CuDef*
G36*
G01*
X143818020Y-65272780D02*
X143818020Y-65572780D01*
G75*
G02*
X143668020Y-65722780I-150000J0D01*
G01*
X142018020Y-65722780D01*
G75*
G02*
X141868020Y-65572780I0J150000D01*
G01*
X141868020Y-65272780D01*
G75*
G02*
X142018020Y-65122780I150000J0D01*
G01*
X143668020Y-65122780D01*
G75*
G02*
X143818020Y-65272780I0J-150000D01*
G01*
G37*
G04 #@! TD.AperFunction*
G04 #@! TA.AperFunction,SMDPad,CuDef*
G36*
G01*
X177062000Y-65001000D02*
X177062000Y-65301000D01*
G75*
G02*
X176912000Y-65451000I-150000J0D01*
G01*
X175262000Y-65451000D01*
G75*
G02*
X175112000Y-65301000I0J150000D01*
G01*
X175112000Y-65001000D01*
G75*
G02*
X175262000Y-64851000I150000J0D01*
G01*
X176912000Y-64851000D01*
G75*
G02*
X177062000Y-65001000I0J-150000D01*
G01*
G37*
G04 #@! TD.AperFunction*
G04 #@! TA.AperFunction,SMDPad,CuDef*
G36*
G01*
X177062000Y-63731000D02*
X177062000Y-64031000D01*
G75*
G02*
X176912000Y-64181000I-150000J0D01*
G01*
X175262000Y-64181000D01*
G75*
G02*
X175112000Y-64031000I0J150000D01*
G01*
X175112000Y-63731000D01*
G75*
G02*
X175262000Y-63581000I150000J0D01*
G01*
X176912000Y-63581000D01*
G75*
G02*
X177062000Y-63731000I0J-150000D01*
G01*
G37*
G04 #@! TD.AperFunction*
G04 #@! TA.AperFunction,SMDPad,CuDef*
G36*
G01*
X177062000Y-62461000D02*
X177062000Y-62761000D01*
G75*
G02*
X176912000Y-62911000I-150000J0D01*
G01*
X175262000Y-62911000D01*
G75*
G02*
X175112000Y-62761000I0J150000D01*
G01*
X175112000Y-62461000D01*
G75*
G02*
X175262000Y-62311000I150000J0D01*
G01*
X176912000Y-62311000D01*
G75*
G02*
X177062000Y-62461000I0J-150000D01*
G01*
G37*
G04 #@! TD.AperFunction*
G04 #@! TA.AperFunction,SMDPad,CuDef*
G36*
G01*
X177062000Y-61191000D02*
X177062000Y-61491000D01*
G75*
G02*
X176912000Y-61641000I-150000J0D01*
G01*
X175262000Y-61641000D01*
G75*
G02*
X175112000Y-61491000I0J150000D01*
G01*
X175112000Y-61191000D01*
G75*
G02*
X175262000Y-61041000I150000J0D01*
G01*
X176912000Y-61041000D01*
G75*
G02*
X177062000Y-61191000I0J-150000D01*
G01*
G37*
G04 #@! TD.AperFunction*
G04 #@! TA.AperFunction,SMDPad,CuDef*
G36*
G01*
X182012000Y-61191000D02*
X182012000Y-61491000D01*
G75*
G02*
X181862000Y-61641000I-150000J0D01*
G01*
X180212000Y-61641000D01*
G75*
G02*
X180062000Y-61491000I0J150000D01*
G01*
X180062000Y-61191000D01*
G75*
G02*
X180212000Y-61041000I150000J0D01*
G01*
X181862000Y-61041000D01*
G75*
G02*
X182012000Y-61191000I0J-150000D01*
G01*
G37*
G04 #@! TD.AperFunction*
G04 #@! TA.AperFunction,SMDPad,CuDef*
G36*
G01*
X182012000Y-62461000D02*
X182012000Y-62761000D01*
G75*
G02*
X181862000Y-62911000I-150000J0D01*
G01*
X180212000Y-62911000D01*
G75*
G02*
X180062000Y-62761000I0J150000D01*
G01*
X180062000Y-62461000D01*
G75*
G02*
X180212000Y-62311000I150000J0D01*
G01*
X181862000Y-62311000D01*
G75*
G02*
X182012000Y-62461000I0J-150000D01*
G01*
G37*
G04 #@! TD.AperFunction*
G04 #@! TA.AperFunction,SMDPad,CuDef*
G36*
G01*
X182012000Y-63731000D02*
X182012000Y-64031000D01*
G75*
G02*
X181862000Y-64181000I-150000J0D01*
G01*
X180212000Y-64181000D01*
G75*
G02*
X180062000Y-64031000I0J150000D01*
G01*
X180062000Y-63731000D01*
G75*
G02*
X180212000Y-63581000I150000J0D01*
G01*
X181862000Y-63581000D01*
G75*
G02*
X182012000Y-63731000I0J-150000D01*
G01*
G37*
G04 #@! TD.AperFunction*
G04 #@! TA.AperFunction,SMDPad,CuDef*
G36*
G01*
X182012000Y-65001000D02*
X182012000Y-65301000D01*
G75*
G02*
X181862000Y-65451000I-150000J0D01*
G01*
X180212000Y-65451000D01*
G75*
G02*
X180062000Y-65301000I0J150000D01*
G01*
X180062000Y-65001000D01*
G75*
G02*
X180212000Y-64851000I150000J0D01*
G01*
X181862000Y-64851000D01*
G75*
G02*
X182012000Y-65001000I0J-150000D01*
G01*
G37*
G04 #@! TD.AperFunction*
D21*
X71247000Y-64262000D03*
D22*
X71247000Y-62362000D03*
D21*
X108458000Y-64892000D03*
D22*
X108458000Y-62992000D03*
D21*
X146215100Y-64401780D03*
D22*
X146215100Y-62501780D03*
D21*
X184404000Y-63622000D03*
D22*
X184404000Y-61722000D03*
D20*
X59944000Y-64730000D03*
X59944000Y-62230000D03*
X95758000Y-64770000D03*
X95758000Y-62270000D03*
X134477760Y-64569340D03*
X134477760Y-62069340D03*
X171958000Y-64770000D03*
X171958000Y-62270000D03*
X71969000Y-74041000D03*
X69469000Y-74041000D03*
X95504000Y-58189500D03*
X95504000Y-55689500D03*
X133159500Y-58189500D03*
X133159500Y-55689500D03*
X171005500Y-58189500D03*
X171005500Y-55689500D03*
X209359500Y-61698500D03*
X209359500Y-64198500D03*
D23*
X214804000Y-76708000D03*
D24*
X209804000Y-76708000D03*
D25*
X75311000Y-43878500D03*
D26*
X75311000Y-40068500D03*
G04 #@! TA.AperFunction,ComponentPad*
G36*
G01*
X73013740Y-49985760D02*
X73013740Y-49985760D01*
G75*
G02*
X73013740Y-51541394I-777817J-777817D01*
G01*
X73013740Y-51541394D01*
G75*
G02*
X71458106Y-51541394I-777817J777817D01*
G01*
X71458106Y-51541394D01*
G75*
G02*
X71458106Y-49985760I777817J777817D01*
G01*
X71458106Y-49985760D01*
G75*
G02*
X73013740Y-49985760I777817J-777817D01*
G01*
G37*
G04 #@! TD.AperFunction*
G04 #@! TA.AperFunction,ComponentPad*
D27*
G36*
X74930000Y-46513865D02*
G01*
X76485635Y-48069500D01*
X74930000Y-49625135D01*
X73374365Y-48069500D01*
X74930000Y-46513865D01*
G37*
G04 #@! TD.AperFunction*
D25*
X109474000Y-45339000D03*
D26*
X113284000Y-45339000D03*
D25*
X109537500Y-49022000D03*
D26*
X113347500Y-49022000D03*
D25*
X147574000Y-45466000D03*
D26*
X151384000Y-45466000D03*
D25*
X147574000Y-49149000D03*
D26*
X151384000Y-49149000D03*
D25*
X185674000Y-45593000D03*
D26*
X189484000Y-45593000D03*
D25*
X185674000Y-49276000D03*
D26*
X189484000Y-49276000D03*
D20*
X88178000Y-52832000D03*
X90678000Y-52832000D03*
X81574000Y-52832000D03*
X84074000Y-52832000D03*
X75351000Y-52959000D03*
X77851000Y-52959000D03*
X126024000Y-52832000D03*
X128524000Y-52832000D03*
X119674000Y-52832000D03*
X122174000Y-52832000D03*
X113514500Y-52895500D03*
X116014500Y-52895500D03*
X164124000Y-52832000D03*
X166624000Y-52832000D03*
X157520000Y-52832000D03*
X160020000Y-52832000D03*
X151551000Y-52832000D03*
X154051000Y-52832000D03*
X202160500Y-52832000D03*
X204660500Y-52832000D03*
X195580000Y-52832000D03*
X198080000Y-52832000D03*
X189397000Y-52705000D03*
X191897000Y-52705000D03*
D19*
X115570000Y-76708000D03*
X115570000Y-91948000D03*
X80010000Y-76708000D03*
X113030000Y-91948000D03*
X82550000Y-76708000D03*
X110490000Y-91948000D03*
X85090000Y-76708000D03*
X107950000Y-91948000D03*
X87630000Y-76708000D03*
X105410000Y-91948000D03*
X90170000Y-76708000D03*
X102870000Y-91948000D03*
X92710000Y-76708000D03*
X100330000Y-91948000D03*
X95250000Y-76708000D03*
X97790000Y-91948000D03*
X97790000Y-76708000D03*
X95250000Y-91948000D03*
X100330000Y-76708000D03*
X92710000Y-91948000D03*
X102870000Y-76708000D03*
X90170000Y-91948000D03*
X105410000Y-76708000D03*
X87630000Y-91948000D03*
X107950000Y-76708000D03*
X85090000Y-91948000D03*
X110490000Y-76708000D03*
X82550000Y-91948000D03*
X113030000Y-76708000D03*
D28*
X80010000Y-91948000D03*
D16*
X194796400Y-80479900D03*
D17*
X199796400Y-80479900D03*
D10*
X178511200Y-77152500D03*
X181051200Y-77152500D03*
X183591200Y-77152500D03*
D11*
X186131200Y-77152500D03*
D29*
X69532500Y-68389500D03*
X67740001Y-68340499D03*
D30*
X137477500Y-74930000D02*
X134429500Y-74930000D01*
X106870020Y-72707980D02*
X102870000Y-76708000D01*
X133667980Y-74168480D02*
X134429500Y-74930000D01*
X134429500Y-74930000D02*
X132207480Y-72707980D01*
X131889980Y-72707980D02*
X126746480Y-72707980D01*
X132207480Y-72707980D02*
X126746480Y-72707980D01*
X126746480Y-72707980D02*
X106870020Y-72707980D01*
X92710000Y-91948000D02*
X92538002Y-91948000D01*
X92538002Y-91948000D02*
X79330002Y-78740000D01*
X73596500Y-78867000D02*
X73723500Y-78740000D01*
X79330002Y-78740000D02*
X73723500Y-78740000D01*
X73723500Y-78740000D02*
X69278500Y-78740000D01*
X73596500Y-83058000D02*
X69278500Y-78740000D01*
X73596500Y-89154000D02*
X73596500Y-83058000D01*
D31*
X146215100Y-62501780D02*
X145308320Y-61595000D01*
X142860800Y-61595000D02*
X142843020Y-61612780D01*
X145308320Y-61595000D02*
X142860800Y-61595000D01*
X145354510Y-62752770D02*
X142843020Y-62752770D01*
X146187829Y-62701771D02*
X145405509Y-62701771D01*
X145405509Y-62701771D02*
X145354510Y-62752770D01*
X146215100Y-62501780D02*
X146215100Y-62674500D01*
X146215100Y-62674500D02*
X146187829Y-62701771D01*
D32*
X134934320Y-61612780D02*
X134477760Y-62069340D01*
X137893020Y-61612780D02*
X134934320Y-61612780D01*
X135291200Y-62882780D02*
X134477760Y-62069340D01*
X137893020Y-62882780D02*
X135291200Y-62882780D01*
D33*
X69845000Y-61595000D02*
X70612000Y-62362000D01*
X68007000Y-61595000D02*
X69845000Y-61595000D01*
X70109000Y-62865000D02*
X70612000Y-62362000D01*
X68007000Y-62865000D02*
X70109000Y-62865000D01*
D32*
X60579000Y-61595000D02*
X59944000Y-62230000D01*
X63057000Y-61595000D02*
X60579000Y-61595000D01*
X60579000Y-62865000D02*
X59944000Y-62230000D01*
X63057000Y-62865000D02*
X60579000Y-62865000D01*
D33*
X108331000Y-63119000D02*
X108458000Y-62992000D01*
X104772000Y-63119000D02*
X108331000Y-63119000D01*
X107315000Y-61849000D02*
X108458000Y-62992000D01*
X104772000Y-61849000D02*
X107315000Y-61849000D01*
X99822000Y-61849000D02*
X97155000Y-61849000D01*
D30*
X184023000Y-61341000D02*
X184404000Y-61722000D01*
X181037000Y-61341000D02*
X184023000Y-61341000D01*
X181037000Y-62611000D02*
X182753000Y-62611000D01*
X183642000Y-61722000D02*
X184404000Y-61722000D01*
X182753000Y-62611000D02*
X183642000Y-61722000D01*
X172887000Y-61341000D02*
X171958000Y-62270000D01*
X176087000Y-61341000D02*
X172887000Y-61341000D01*
X172299000Y-62611000D02*
X171958000Y-62270000D01*
X176087000Y-62611000D02*
X172299000Y-62611000D01*
D33*
X96607000Y-63119000D02*
X95758000Y-62270000D01*
X99822000Y-63119000D02*
X96607000Y-63119000D01*
X96179000Y-61849000D02*
X95758000Y-62270000D01*
X99822000Y-61849000D02*
X96179000Y-61849000D01*
D30*
X108210011Y-73907989D02*
X105410000Y-76708000D01*
X119818489Y-73907989D02*
X108210011Y-73907989D01*
X127444500Y-81534000D02*
X119818489Y-73907989D01*
X125418511Y-79508011D02*
X127444500Y-81534000D01*
X174180500Y-105410000D02*
X151320500Y-105410000D01*
X127444500Y-81534000D02*
X148336000Y-102425500D01*
X151320500Y-105410000D02*
X148336000Y-102425500D01*
X148336000Y-102425500D02*
X150558500Y-104648000D01*
X109550001Y-75107999D02*
X119321429Y-75107999D01*
X119321429Y-75107999D02*
X125548215Y-81334785D01*
X107950000Y-76708000D02*
X109550001Y-75107999D01*
X124921451Y-80708021D02*
X125548215Y-81334785D01*
X125548215Y-81334785D02*
X157425215Y-113211785D01*
X164768430Y-120555000D02*
X157425215Y-113211785D01*
X174244000Y-120555000D02*
X164768430Y-120555000D01*
D32*
X135331200Y-65422780D02*
X137893020Y-65422780D01*
X134477760Y-64569340D02*
X135331200Y-65422780D01*
X60619000Y-65405000D02*
X59944000Y-64730000D01*
X63057000Y-65405000D02*
X60619000Y-65405000D01*
D30*
X172339000Y-65151000D02*
X171958000Y-64770000D01*
X176087000Y-65151000D02*
X172339000Y-65151000D01*
X96647000Y-65659000D02*
X95758000Y-64770000D01*
X99822000Y-65659000D02*
X96647000Y-65659000D01*
D34*
X90424000Y-48006000D02*
X83820000Y-41402000D01*
X90424000Y-51816000D02*
X90424000Y-48006000D01*
X91558000Y-52950000D02*
X90424000Y-51816000D01*
X91558000Y-57150000D02*
X91558000Y-52950000D01*
X91558000Y-53712000D02*
X90678000Y-52832000D01*
X91558000Y-57150000D02*
X91558000Y-53712000D01*
X90678000Y-48260000D02*
X83820000Y-41402000D01*
X90678000Y-52832000D02*
X90678000Y-48260000D01*
X76724500Y-41418500D02*
X75755500Y-40449500D01*
X83820000Y-41418500D02*
X76724500Y-41418500D01*
X88158000Y-57150000D02*
X88158000Y-56250000D01*
X88158000Y-56250000D02*
X83820000Y-51912000D01*
X83820000Y-51912000D02*
X83820000Y-46402000D01*
X84592705Y-52832000D02*
X84074000Y-52832000D01*
X88158000Y-56397295D02*
X84592705Y-52832000D01*
X88158000Y-57150000D02*
X88158000Y-56397295D01*
X83820000Y-46418500D02*
X77279500Y-46418500D01*
X75628500Y-48069500D02*
X74930000Y-48069500D01*
X77279500Y-46418500D02*
X75628500Y-48069500D01*
X129658000Y-52950000D02*
X128524000Y-51816000D01*
X129658000Y-57150000D02*
X129658000Y-52950000D01*
X128524000Y-48006000D02*
X121920000Y-41402000D01*
X128524000Y-51816000D02*
X128524000Y-48006000D01*
X117983000Y-45339000D02*
X121920000Y-41402000D01*
X113284000Y-45339000D02*
X117983000Y-45339000D01*
X121920000Y-51912000D02*
X121920000Y-46402000D01*
X126258000Y-56250000D02*
X121920000Y-51912000D01*
X126258000Y-57150000D02*
X126258000Y-56250000D01*
X120316000Y-48006000D02*
X121920000Y-46402000D01*
X119300000Y-49022000D02*
X121920000Y-46402000D01*
X113347500Y-49022000D02*
X119300000Y-49022000D01*
X166370000Y-48006000D02*
X159766000Y-41402000D01*
X166370000Y-51816000D02*
X166370000Y-48006000D01*
X167504000Y-52950000D02*
X166370000Y-51816000D01*
X167504000Y-57150000D02*
X167504000Y-52950000D01*
X159766000Y-41402000D02*
X159702500Y-41402000D01*
X155638500Y-45466000D02*
X151384000Y-45466000D01*
X159702500Y-41402000D02*
X155638500Y-45466000D01*
X164104000Y-57150000D02*
X164104000Y-56250000D01*
X164104000Y-56250000D02*
X159766000Y-51912000D01*
X159766000Y-51912000D02*
X159766000Y-46402000D01*
X158162000Y-48006000D02*
X159766000Y-46402000D01*
X157019000Y-49149000D02*
X159766000Y-46402000D01*
X151384000Y-49149000D02*
X157019000Y-49149000D01*
X204470000Y-48006000D02*
X197866000Y-41402000D01*
X204470000Y-51816000D02*
X204470000Y-48006000D01*
X205604000Y-52950000D02*
X204470000Y-51816000D01*
X205604000Y-57150000D02*
X205604000Y-52950000D01*
X191516000Y-45593000D02*
X191833500Y-45593000D01*
X189484000Y-45593000D02*
X191516000Y-45593000D01*
X196008000Y-41418500D02*
X197802500Y-41418500D01*
X191833500Y-45593000D02*
X196008000Y-41418500D01*
X202204000Y-57150000D02*
X202204000Y-56250000D01*
X202204000Y-56250000D02*
X197866000Y-51912000D01*
X197866000Y-51912000D02*
X197866000Y-46402000D01*
X194992000Y-49276000D02*
X197866000Y-46402000D01*
X189484000Y-49276000D02*
X194992000Y-49276000D01*
D31*
X67789002Y-68389500D02*
X67740001Y-68340499D01*
D30*
X153161001Y-75502499D02*
X143573500Y-85090000D01*
X184481199Y-75502499D02*
X153161001Y-75502499D01*
X186131200Y-77152500D02*
X184481199Y-75502499D01*
X97790000Y-76708000D02*
X105987990Y-68510010D01*
X177135518Y-63881000D02*
X176087000Y-63881000D01*
X177862010Y-65824488D02*
X177862010Y-64607492D01*
X175176490Y-68510008D02*
X177862010Y-65824488D01*
X177862010Y-64607492D02*
X177135518Y-63881000D01*
X105987990Y-68510010D02*
X175176490Y-68510008D01*
D33*
X139700000Y-64984760D02*
X138868020Y-64152780D01*
X138868020Y-64152780D02*
X137893020Y-64152780D01*
D30*
X138324318Y-67310000D02*
X139700000Y-65934318D01*
X139700000Y-65934318D02*
X139700000Y-65278000D01*
D33*
X139700000Y-65278000D02*
X139700000Y-64984760D01*
D30*
X111506000Y-67310000D02*
X138324318Y-67310000D01*
X109728000Y-67310000D02*
X111506000Y-67310000D01*
X95250000Y-75184000D02*
X95250000Y-76708000D01*
X95250000Y-74785570D02*
X95250000Y-75184000D01*
X102725570Y-67310000D02*
X95250000Y-74785570D01*
X111506000Y-67310000D02*
X102725570Y-67310000D01*
X100870518Y-64389000D02*
X99822000Y-64389000D01*
X101597010Y-65115492D02*
X100870518Y-64389000D01*
X92837000Y-75501500D02*
X101597010Y-66741490D01*
X101597010Y-66741490D02*
X101597010Y-65115492D01*
X92710000Y-75501500D02*
X92837000Y-75501500D01*
X92710000Y-76708000D02*
X92710000Y-75501500D01*
X64105518Y-64135000D02*
X63057000Y-64135000D01*
X80502498Y-67040498D02*
X67011016Y-67040498D01*
X67011016Y-67040498D02*
X64105518Y-64135000D01*
X90170000Y-76708000D02*
X80502498Y-67040498D01*
X82550000Y-93079370D02*
X82550000Y-91948000D01*
X80239390Y-95389980D02*
X82550000Y-93079370D01*
X69202020Y-95389980D02*
X73418980Y-95389980D01*
X68326000Y-96266000D02*
X69202020Y-95389980D01*
X72212571Y-95389980D02*
X73418980Y-95389980D01*
X73418980Y-95389980D02*
X80239390Y-95389980D01*
X77768030Y-94189970D02*
X80010000Y-91948000D01*
X65278000Y-96266000D02*
X67354030Y-94189970D01*
X67354030Y-94189970D02*
X77768030Y-94189970D01*
X59182000Y-96266000D02*
X62230000Y-96266000D01*
X143446500Y-74930000D02*
X140525500Y-74930000D01*
X86175990Y-96589990D02*
X90170000Y-100584000D01*
X65278000Y-103886000D02*
X72574010Y-96589990D01*
X72574010Y-96589990D02*
X73590010Y-96589990D01*
X65278000Y-106426000D02*
X65278000Y-103886000D01*
X73082938Y-96589990D02*
X73590010Y-96589990D01*
X73590010Y-96589990D02*
X86175990Y-96589990D01*
X62230000Y-106426000D02*
X65278000Y-106426000D01*
X84836000Y-97790000D02*
X87630000Y-100584000D01*
X73579998Y-97790000D02*
X84836000Y-97790000D01*
X68326000Y-103043998D02*
X73579998Y-97790000D01*
X68326000Y-106426000D02*
X68326000Y-103043998D01*
D34*
X190304000Y-62230000D02*
X190304000Y-62426000D01*
X188907999Y-63822001D02*
X184404000Y-63822001D01*
X190304000Y-62426000D02*
X188907999Y-63822001D01*
D30*
X182875000Y-65151000D02*
X184404000Y-63622000D01*
X181037000Y-65151000D02*
X182875000Y-65151000D01*
X184345001Y-63881000D02*
X184404000Y-63822001D01*
X181037000Y-63881000D02*
X184345001Y-63881000D01*
D34*
X149832219Y-64601781D02*
X146215100Y-64601781D01*
X152204000Y-62230000D02*
X149832219Y-64601781D01*
D31*
X145966100Y-64152780D02*
X146215100Y-64401780D01*
X142843020Y-64152780D02*
X145966100Y-64152780D01*
X145194100Y-65422780D02*
X146215100Y-64401780D01*
X142843020Y-65422780D02*
X145194100Y-65422780D01*
D33*
X107955000Y-64389000D02*
X108458000Y-64892000D01*
X104772000Y-64389000D02*
X107955000Y-64389000D01*
X107691000Y-65659000D02*
X108458000Y-64892000D01*
X104772000Y-65659000D02*
X107691000Y-65659000D01*
D34*
X111411332Y-65092001D02*
X108458000Y-65092001D01*
X114273333Y-62230000D02*
X111411332Y-65092001D01*
D30*
X70485000Y-64135000D02*
X70612000Y-64262000D01*
X68007000Y-64135000D02*
X70485000Y-64135000D01*
X69469000Y-65405000D02*
X70612000Y-64262000D01*
X68007000Y-65405000D02*
X69469000Y-65405000D01*
D34*
X74025999Y-64462001D02*
X70916176Y-64462001D01*
X76258000Y-62230000D02*
X74025999Y-64462001D01*
D31*
X105727500Y-108521500D02*
X100330000Y-103124000D01*
D35*
G36*
X124790454Y-82170843D02*
G01*
X124790460Y-82170848D01*
X126296997Y-83677385D01*
X178186134Y-137412258D01*
X178215274Y-147467930D01*
X146060906Y-148271276D01*
X142893330Y-145128500D01*
X172635580Y-145128500D01*
X172661201Y-145388637D01*
X172737081Y-145638778D01*
X172860302Y-145869308D01*
X173026130Y-146071370D01*
X173228192Y-146237198D01*
X173458722Y-146360419D01*
X173708863Y-146436299D01*
X173903816Y-146455500D01*
X174584184Y-146455500D01*
X174779137Y-146436299D01*
X175029278Y-146360419D01*
X175259808Y-146237198D01*
X175461870Y-146071370D01*
X175627698Y-145869308D01*
X175750919Y-145638778D01*
X175826799Y-145388637D01*
X175852420Y-145128500D01*
X175826799Y-144868363D01*
X175750919Y-144618222D01*
X175627698Y-144387692D01*
X175461870Y-144185630D01*
X175323417Y-144072005D01*
X175482078Y-143911974D01*
X175616421Y-143709033D01*
X175708591Y-143483782D01*
X175712462Y-143446109D01*
X175587731Y-143255500D01*
X174371000Y-143255500D01*
X174371000Y-143275500D01*
X174117000Y-143275500D01*
X174117000Y-143255500D01*
X172900269Y-143255500D01*
X172775538Y-143446109D01*
X172779409Y-143483782D01*
X172871579Y-143709033D01*
X173005922Y-143911974D01*
X173164583Y-144072005D01*
X173026130Y-144185630D01*
X172860302Y-144387692D01*
X172737081Y-144618222D01*
X172661201Y-144868363D01*
X172635580Y-145128500D01*
X142893330Y-145128500D01*
X138861766Y-141128500D01*
X172635580Y-141128500D01*
X172661201Y-141388637D01*
X172737081Y-141638778D01*
X172860302Y-141869308D01*
X173026130Y-142071370D01*
X173164583Y-142184995D01*
X173005922Y-142345026D01*
X172871579Y-142547967D01*
X172779409Y-142773218D01*
X172775538Y-142810891D01*
X172900269Y-143001500D01*
X174117000Y-143001500D01*
X174117000Y-142981500D01*
X174371000Y-142981500D01*
X174371000Y-143001500D01*
X175587731Y-143001500D01*
X175712462Y-142810891D01*
X175708591Y-142773218D01*
X175616421Y-142547967D01*
X175482078Y-142345026D01*
X175323417Y-142184995D01*
X175461870Y-142071370D01*
X175627698Y-141869308D01*
X175750919Y-141638778D01*
X175826799Y-141388637D01*
X175852420Y-141128500D01*
X175826799Y-140868363D01*
X175750919Y-140618222D01*
X175627698Y-140387692D01*
X175495534Y-140226650D01*
X175562331Y-140171831D01*
X175684270Y-140023247D01*
X175774880Y-139853728D01*
X175830677Y-139669790D01*
X175849517Y-139478501D01*
X175849517Y-138778499D01*
X175830677Y-138587210D01*
X175774880Y-138403272D01*
X175684270Y-138233753D01*
X175562331Y-138085169D01*
X175413747Y-137963230D01*
X175244228Y-137872620D01*
X175060290Y-137816823D01*
X174869001Y-137797983D01*
X173618999Y-137797983D01*
X173427710Y-137816823D01*
X173243772Y-137872620D01*
X173074253Y-137963230D01*
X172925669Y-138085169D01*
X172803730Y-138233753D01*
X172713120Y-138403272D01*
X172657323Y-138587210D01*
X172638483Y-138778499D01*
X172638483Y-139478501D01*
X172657323Y-139669790D01*
X172713120Y-139853728D01*
X172803730Y-140023247D01*
X172925669Y-140171831D01*
X172992466Y-140226650D01*
X172860302Y-140387692D01*
X172737081Y-140618222D01*
X172661201Y-140868363D01*
X172635580Y-141128500D01*
X138861766Y-141128500D01*
X107698534Y-110209257D01*
X107679227Y-110193539D01*
X107657224Y-110181889D01*
X107633372Y-110174756D01*
X107611301Y-110172431D01*
X76962000Y-109637619D01*
X76962000Y-105119003D01*
X77515824Y-104748950D01*
X78034950Y-104229824D01*
X78442824Y-103619396D01*
X78595418Y-103251002D01*
X78689185Y-103251002D01*
X78568519Y-103480891D01*
X78665843Y-103755252D01*
X78814822Y-104005355D01*
X79009731Y-104221588D01*
X79243080Y-104395641D01*
X79505901Y-104520825D01*
X79653110Y-104565476D01*
X79883000Y-104444155D01*
X79883000Y-103251000D01*
X79863000Y-103251000D01*
X79863000Y-102997000D01*
X79883000Y-102997000D01*
X79883000Y-102977000D01*
X80137000Y-102977000D01*
X80137000Y-102997000D01*
X80157000Y-102997000D01*
X80157000Y-103251000D01*
X80137000Y-103251000D01*
X80137000Y-104444155D01*
X80366890Y-104565476D01*
X80514099Y-104520825D01*
X80776920Y-104395641D01*
X81010269Y-104221588D01*
X81205178Y-104005355D01*
X81222656Y-103976014D01*
X81325064Y-104129279D01*
X81544721Y-104348936D01*
X81803011Y-104521519D01*
X82090006Y-104640396D01*
X82394679Y-104701000D01*
X82705321Y-104701000D01*
X83009994Y-104640396D01*
X83296989Y-104521519D01*
X83555279Y-104348936D01*
X83774936Y-104129279D01*
X83820000Y-104061836D01*
X83865064Y-104129279D01*
X84084721Y-104348936D01*
X84343011Y-104521519D01*
X84630006Y-104640396D01*
X84934679Y-104701000D01*
X85245321Y-104701000D01*
X85549994Y-104640396D01*
X85836989Y-104521519D01*
X86095279Y-104348936D01*
X86314936Y-104129279D01*
X86360000Y-104061836D01*
X86405064Y-104129279D01*
X86624721Y-104348936D01*
X86883011Y-104521519D01*
X87170006Y-104640396D01*
X87474679Y-104701000D01*
X87785321Y-104701000D01*
X88089994Y-104640396D01*
X88376989Y-104521519D01*
X88635279Y-104348936D01*
X88854936Y-104129279D01*
X88900000Y-104061836D01*
X88945064Y-104129279D01*
X89164721Y-104348936D01*
X89423011Y-104521519D01*
X89710006Y-104640396D01*
X90014679Y-104701000D01*
X90325321Y-104701000D01*
X90629994Y-104640396D01*
X90916989Y-104521519D01*
X91175279Y-104348936D01*
X91394936Y-104129279D01*
X91440000Y-104061836D01*
X91485064Y-104129279D01*
X91704721Y-104348936D01*
X91963011Y-104521519D01*
X92250006Y-104640396D01*
X92554679Y-104701000D01*
X92865321Y-104701000D01*
X93169994Y-104640396D01*
X93456989Y-104521519D01*
X93715279Y-104348936D01*
X93934936Y-104129279D01*
X93980000Y-104061836D01*
X94025064Y-104129279D01*
X94244721Y-104348936D01*
X94503011Y-104521519D01*
X94790006Y-104640396D01*
X95094679Y-104701000D01*
X95405321Y-104701000D01*
X95709994Y-104640396D01*
X95996989Y-104521519D01*
X96255279Y-104348936D01*
X96474936Y-104129279D01*
X96520000Y-104061836D01*
X96565064Y-104129279D01*
X96784721Y-104348936D01*
X97043011Y-104521519D01*
X97330006Y-104640396D01*
X97634679Y-104701000D01*
X97945321Y-104701000D01*
X98249994Y-104640396D01*
X98536989Y-104521519D01*
X98795279Y-104348936D01*
X99014936Y-104129279D01*
X99117344Y-103976014D01*
X99134822Y-104005355D01*
X99329731Y-104221588D01*
X99563080Y-104395641D01*
X99825901Y-104520825D01*
X99973110Y-104565476D01*
X100203000Y-104444155D01*
X100203000Y-103251000D01*
X100183000Y-103251000D01*
X100183000Y-102997000D01*
X100203000Y-102997000D01*
X100203000Y-102977000D01*
X100457000Y-102977000D01*
X100457000Y-102997000D01*
X100477000Y-102997000D01*
X100477000Y-103251000D01*
X100457000Y-103251000D01*
X100457000Y-104444155D01*
X100686890Y-104565476D01*
X100834099Y-104520825D01*
X101096920Y-104395641D01*
X101330269Y-104221588D01*
X101525178Y-104005355D01*
X101542656Y-103976014D01*
X101645064Y-104129279D01*
X101864721Y-104348936D01*
X102123011Y-104521519D01*
X102410006Y-104640396D01*
X102714679Y-104701000D01*
X103025321Y-104701000D01*
X103329994Y-104640396D01*
X103616989Y-104521519D01*
X103875279Y-104348936D01*
X104094936Y-104129279D01*
X104140000Y-104061836D01*
X104185064Y-104129279D01*
X104404721Y-104348936D01*
X104663011Y-104521519D01*
X104950006Y-104640396D01*
X105254679Y-104701000D01*
X105565321Y-104701000D01*
X105869994Y-104640396D01*
X106156989Y-104521519D01*
X106415279Y-104348936D01*
X106634936Y-104129279D01*
X106680000Y-104061836D01*
X106725064Y-104129279D01*
X106944721Y-104348936D01*
X107203011Y-104521519D01*
X107490006Y-104640396D01*
X107794679Y-104701000D01*
X108105321Y-104701000D01*
X108409994Y-104640396D01*
X108696989Y-104521519D01*
X108955279Y-104348936D01*
X109174936Y-104129279D01*
X109220000Y-104061836D01*
X109265064Y-104129279D01*
X109484721Y-104348936D01*
X109743011Y-104521519D01*
X110030006Y-104640396D01*
X110334679Y-104701000D01*
X110645321Y-104701000D01*
X110949994Y-104640396D01*
X111236989Y-104521519D01*
X111495279Y-104348936D01*
X111714936Y-104129279D01*
X111760000Y-104061836D01*
X111805064Y-104129279D01*
X112024721Y-104348936D01*
X112283011Y-104521519D01*
X112570006Y-104640396D01*
X112874679Y-104701000D01*
X113185321Y-104701000D01*
X113489994Y-104640396D01*
X113776989Y-104521519D01*
X114035279Y-104348936D01*
X114254936Y-104129279D01*
X114300000Y-104061836D01*
X114345064Y-104129279D01*
X114564721Y-104348936D01*
X114823011Y-104521519D01*
X115110006Y-104640396D01*
X115414679Y-104701000D01*
X115725321Y-104701000D01*
X116029994Y-104640396D01*
X116316989Y-104521519D01*
X116575279Y-104348936D01*
X116794936Y-104129279D01*
X116840000Y-104061836D01*
X116885064Y-104129279D01*
X117104721Y-104348936D01*
X117363011Y-104521519D01*
X117650006Y-104640396D01*
X117954679Y-104701000D01*
X118265321Y-104701000D01*
X118569994Y-104640396D01*
X118856989Y-104521519D01*
X119115279Y-104348936D01*
X119334936Y-104129279D01*
X119380000Y-104061836D01*
X119425064Y-104129279D01*
X119644721Y-104348936D01*
X119903011Y-104521519D01*
X120190006Y-104640396D01*
X120494679Y-104701000D01*
X120805321Y-104701000D01*
X121109994Y-104640396D01*
X121396989Y-104521519D01*
X121655279Y-104348936D01*
X121874936Y-104129279D01*
X121920000Y-104061836D01*
X121965064Y-104129279D01*
X122184721Y-104348936D01*
X122443011Y-104521519D01*
X122730006Y-104640396D01*
X123034679Y-104701000D01*
X123345321Y-104701000D01*
X123649994Y-104640396D01*
X123936989Y-104521519D01*
X124195279Y-104348936D01*
X124414936Y-104129279D01*
X124460000Y-104061836D01*
X124505064Y-104129279D01*
X124724721Y-104348936D01*
X124983011Y-104521519D01*
X125270006Y-104640396D01*
X125574679Y-104701000D01*
X125885321Y-104701000D01*
X126189994Y-104640396D01*
X126476989Y-104521519D01*
X126735279Y-104348936D01*
X126954936Y-104129279D01*
X127000000Y-104061836D01*
X127045064Y-104129279D01*
X127264721Y-104348936D01*
X127523011Y-104521519D01*
X127810006Y-104640396D01*
X128114679Y-104701000D01*
X128425321Y-104701000D01*
X128729994Y-104640396D01*
X129016989Y-104521519D01*
X129275279Y-104348936D01*
X129494936Y-104129279D01*
X129667519Y-103870989D01*
X129786396Y-103583994D01*
X129798113Y-103525090D01*
X129837176Y-103619396D01*
X130245050Y-104229824D01*
X130764176Y-104748950D01*
X131374604Y-105156824D01*
X132052874Y-105437773D01*
X132772923Y-105581000D01*
X133507077Y-105581000D01*
X134227126Y-105437773D01*
X134905396Y-105156824D01*
X135515824Y-104748950D01*
X136034950Y-104229824D01*
X136442824Y-103619396D01*
X136723773Y-102941126D01*
X136867000Y-102221077D01*
X136867000Y-101486923D01*
X136723773Y-100766874D01*
X136442824Y-100088604D01*
X136034950Y-99478176D01*
X135515824Y-98959050D01*
X134905396Y-98551176D01*
X134227126Y-98270227D01*
X133507077Y-98127000D01*
X132772923Y-98127000D01*
X132052874Y-98270227D01*
X131374604Y-98551176D01*
X130764176Y-98959050D01*
X130245050Y-99478176D01*
X129837176Y-100088604D01*
X129798113Y-100182910D01*
X129786396Y-100124006D01*
X129667519Y-99837011D01*
X129494936Y-99578721D01*
X129275279Y-99359064D01*
X129016989Y-99186481D01*
X128729994Y-99067604D01*
X128425321Y-99007000D01*
X128114679Y-99007000D01*
X127810006Y-99067604D01*
X127523011Y-99186481D01*
X127264721Y-99359064D01*
X127045064Y-99578721D01*
X127000000Y-99646164D01*
X126954936Y-99578721D01*
X126735279Y-99359064D01*
X126476989Y-99186481D01*
X126189994Y-99067604D01*
X125885321Y-99007000D01*
X125574679Y-99007000D01*
X125270006Y-99067604D01*
X124983011Y-99186481D01*
X124724721Y-99359064D01*
X124505064Y-99578721D01*
X124460000Y-99646164D01*
X124414936Y-99578721D01*
X124195279Y-99359064D01*
X123936989Y-99186481D01*
X123649994Y-99067604D01*
X123345321Y-99007000D01*
X123034679Y-99007000D01*
X122730006Y-99067604D01*
X122443011Y-99186481D01*
X122184721Y-99359064D01*
X121965064Y-99578721D01*
X121920000Y-99646164D01*
X121874936Y-99578721D01*
X121655279Y-99359064D01*
X121396989Y-99186481D01*
X121109994Y-99067604D01*
X120805321Y-99007000D01*
X120494679Y-99007000D01*
X120190006Y-99067604D01*
X119903011Y-99186481D01*
X119644721Y-99359064D01*
X119425064Y-99578721D01*
X119380000Y-99646164D01*
X119334936Y-99578721D01*
X119115279Y-99359064D01*
X118856989Y-99186481D01*
X118569994Y-99067604D01*
X118265321Y-99007000D01*
X117954679Y-99007000D01*
X117650006Y-99067604D01*
X117363011Y-99186481D01*
X117104721Y-99359064D01*
X116885064Y-99578721D01*
X116840000Y-99646164D01*
X116794936Y-99578721D01*
X116575279Y-99359064D01*
X116316989Y-99186481D01*
X116029994Y-99067604D01*
X115725321Y-99007000D01*
X115414679Y-99007000D01*
X115110006Y-99067604D01*
X114823011Y-99186481D01*
X114564721Y-99359064D01*
X114345064Y-99578721D01*
X114300000Y-99646164D01*
X114254936Y-99578721D01*
X114035279Y-99359064D01*
X113776989Y-99186481D01*
X113489994Y-99067604D01*
X113185321Y-99007000D01*
X112874679Y-99007000D01*
X112570006Y-99067604D01*
X112283011Y-99186481D01*
X112024721Y-99359064D01*
X111805064Y-99578721D01*
X111760000Y-99646164D01*
X111714936Y-99578721D01*
X111495279Y-99359064D01*
X111236989Y-99186481D01*
X110949994Y-99067604D01*
X110645321Y-99007000D01*
X110334679Y-99007000D01*
X110030006Y-99067604D01*
X109743011Y-99186481D01*
X109484721Y-99359064D01*
X109265064Y-99578721D01*
X109220000Y-99646164D01*
X109174936Y-99578721D01*
X108955279Y-99359064D01*
X108696989Y-99186481D01*
X108409994Y-99067604D01*
X108105321Y-99007000D01*
X107794679Y-99007000D01*
X107490006Y-99067604D01*
X107203011Y-99186481D01*
X106944721Y-99359064D01*
X106725064Y-99578721D01*
X106680000Y-99646164D01*
X106634936Y-99578721D01*
X106415279Y-99359064D01*
X106156989Y-99186481D01*
X105869994Y-99067604D01*
X105565321Y-99007000D01*
X105254679Y-99007000D01*
X104950006Y-99067604D01*
X104663011Y-99186481D01*
X104404721Y-99359064D01*
X104185064Y-99578721D01*
X104140000Y-99646164D01*
X104094936Y-99578721D01*
X103875279Y-99359064D01*
X103616989Y-99186481D01*
X103329994Y-99067604D01*
X103025321Y-99007000D01*
X102714679Y-99007000D01*
X102410006Y-99067604D01*
X102123011Y-99186481D01*
X101864721Y-99359064D01*
X101645064Y-99578721D01*
X101600000Y-99646164D01*
X101554936Y-99578721D01*
X101335279Y-99359064D01*
X101076989Y-99186481D01*
X100789994Y-99067604D01*
X100485321Y-99007000D01*
X100174679Y-99007000D01*
X99870006Y-99067604D01*
X99583011Y-99186481D01*
X99324721Y-99359064D01*
X99105064Y-99578721D01*
X99060000Y-99646164D01*
X99014936Y-99578721D01*
X98795279Y-99359064D01*
X98536989Y-99186481D01*
X98249994Y-99067604D01*
X97945321Y-99007000D01*
X97634679Y-99007000D01*
X97330006Y-99067604D01*
X97043011Y-99186481D01*
X96784721Y-99359064D01*
X96565064Y-99578721D01*
X96520000Y-99646164D01*
X96474936Y-99578721D01*
X96255279Y-99359064D01*
X95996989Y-99186481D01*
X95709994Y-99067604D01*
X95405321Y-99007000D01*
X95094679Y-99007000D01*
X94790006Y-99067604D01*
X94503011Y-99186481D01*
X94244721Y-99359064D01*
X94025064Y-99578721D01*
X93980000Y-99646164D01*
X93934936Y-99578721D01*
X93715279Y-99359064D01*
X93456989Y-99186481D01*
X93169994Y-99067604D01*
X92865321Y-99007000D01*
X92554679Y-99007000D01*
X92250006Y-99067604D01*
X91963011Y-99186481D01*
X91704721Y-99359064D01*
X91485064Y-99578721D01*
X91440000Y-99646164D01*
X91394936Y-99578721D01*
X91175279Y-99359064D01*
X90916989Y-99186481D01*
X90629994Y-99067604D01*
X90325321Y-99007000D01*
X90186819Y-99007000D01*
X87012049Y-95832231D01*
X86976755Y-95789225D01*
X86805147Y-95648390D01*
X86609361Y-95543740D01*
X86396921Y-95479297D01*
X86231355Y-95462990D01*
X86231344Y-95462990D01*
X86175990Y-95457538D01*
X86120636Y-95462990D01*
X81760198Y-95462990D01*
X83307764Y-93915425D01*
X83350765Y-93880135D01*
X83386055Y-93837134D01*
X83386058Y-93837131D01*
X83491600Y-93708527D01*
X83596250Y-93512741D01*
X83606632Y-93478517D01*
X83660693Y-93300301D01*
X83677000Y-93134735D01*
X83677000Y-93134725D01*
X83682452Y-93079370D01*
X83677000Y-93024016D01*
X83677000Y-92980505D01*
X83736099Y-92921406D01*
X83820000Y-92795839D01*
X83903901Y-92921406D01*
X84116594Y-93134099D01*
X84366694Y-93301210D01*
X84644590Y-93416319D01*
X84939604Y-93475000D01*
X85240396Y-93475000D01*
X85535410Y-93416319D01*
X85813306Y-93301210D01*
X86063406Y-93134099D01*
X86276099Y-92921406D01*
X86360000Y-92795839D01*
X86443901Y-92921406D01*
X86656594Y-93134099D01*
X86906694Y-93301210D01*
X87184590Y-93416319D01*
X87479604Y-93475000D01*
X87780396Y-93475000D01*
X88075410Y-93416319D01*
X88353306Y-93301210D01*
X88603406Y-93134099D01*
X88816099Y-92921406D01*
X88900000Y-92795839D01*
X88983901Y-92921406D01*
X89196594Y-93134099D01*
X89446694Y-93301210D01*
X89724590Y-93416319D01*
X90019604Y-93475000D01*
X90320396Y-93475000D01*
X90615410Y-93416319D01*
X90893306Y-93301210D01*
X91143406Y-93134099D01*
X91356099Y-92921406D01*
X91440000Y-92795839D01*
X91523901Y-92921406D01*
X91736594Y-93134099D01*
X91986694Y-93301210D01*
X92264590Y-93416319D01*
X92559604Y-93475000D01*
X92860396Y-93475000D01*
X93155410Y-93416319D01*
X93433306Y-93301210D01*
X93683406Y-93134099D01*
X93896099Y-92921406D01*
X93980000Y-92795839D01*
X94063901Y-92921406D01*
X94276594Y-93134099D01*
X94526694Y-93301210D01*
X94804590Y-93416319D01*
X95099604Y-93475000D01*
X95400396Y-93475000D01*
X95695410Y-93416319D01*
X95973306Y-93301210D01*
X96223406Y-93134099D01*
X96436099Y-92921406D01*
X96520000Y-92795839D01*
X96603901Y-92921406D01*
X96816594Y-93134099D01*
X97066694Y-93301210D01*
X97344590Y-93416319D01*
X97639604Y-93475000D01*
X97940396Y-93475000D01*
X98235410Y-93416319D01*
X98513306Y-93301210D01*
X98763406Y-93134099D01*
X98976099Y-92921406D01*
X99060000Y-92795839D01*
X99143901Y-92921406D01*
X99356594Y-93134099D01*
X99606694Y-93301210D01*
X99884590Y-93416319D01*
X100179604Y-93475000D01*
X100480396Y-93475000D01*
X100775410Y-93416319D01*
X101053306Y-93301210D01*
X101303406Y-93134099D01*
X101516099Y-92921406D01*
X101600000Y-92795839D01*
X101683901Y-92921406D01*
X101896594Y-93134099D01*
X102146694Y-93301210D01*
X102424590Y-93416319D01*
X102719604Y-93475000D01*
X103020396Y-93475000D01*
X103315410Y-93416319D01*
X103593306Y-93301210D01*
X103843406Y-93134099D01*
X104056099Y-92921406D01*
X104140000Y-92795839D01*
X104223901Y-92921406D01*
X104436594Y-93134099D01*
X104686694Y-93301210D01*
X104964590Y-93416319D01*
X105259604Y-93475000D01*
X105560396Y-93475000D01*
X105855410Y-93416319D01*
X106133306Y-93301210D01*
X106383406Y-93134099D01*
X106596099Y-92921406D01*
X106680000Y-92795839D01*
X106763901Y-92921406D01*
X106976594Y-93134099D01*
X107226694Y-93301210D01*
X107504590Y-93416319D01*
X107799604Y-93475000D01*
X108100396Y-93475000D01*
X108395410Y-93416319D01*
X108673306Y-93301210D01*
X108923406Y-93134099D01*
X109136099Y-92921406D01*
X109220000Y-92795839D01*
X109303901Y-92921406D01*
X109516594Y-93134099D01*
X109766694Y-93301210D01*
X110044590Y-93416319D01*
X110339604Y-93475000D01*
X110640396Y-93475000D01*
X110935410Y-93416319D01*
X111213306Y-93301210D01*
X111463406Y-93134099D01*
X111676099Y-92921406D01*
X111760000Y-92795839D01*
X111843901Y-92921406D01*
X112056594Y-93134099D01*
X112306694Y-93301210D01*
X112584590Y-93416319D01*
X112879604Y-93475000D01*
X113180396Y-93475000D01*
X113475410Y-93416319D01*
X113753306Y-93301210D01*
X114003406Y-93134099D01*
X114216099Y-92921406D01*
X114300000Y-92795839D01*
X114383901Y-92921406D01*
X114596594Y-93134099D01*
X114846694Y-93301210D01*
X115124590Y-93416319D01*
X115419604Y-93475000D01*
X115720396Y-93475000D01*
X116015410Y-93416319D01*
X116293306Y-93301210D01*
X116543406Y-93134099D01*
X116756099Y-92921406D01*
X116923210Y-92671306D01*
X117038319Y-92393410D01*
X117097000Y-92098396D01*
X117097000Y-91797604D01*
X117038319Y-91502590D01*
X116923210Y-91224694D01*
X116756099Y-90974594D01*
X116543406Y-90761901D01*
X116293306Y-90594790D01*
X116015410Y-90479681D01*
X115720396Y-90421000D01*
X115419604Y-90421000D01*
X115124590Y-90479681D01*
X114846694Y-90594790D01*
X114596594Y-90761901D01*
X114383901Y-90974594D01*
X114300000Y-91100161D01*
X114216099Y-90974594D01*
X114003406Y-90761901D01*
X113753306Y-90594790D01*
X113475410Y-90479681D01*
X113180396Y-90421000D01*
X112879604Y-90421000D01*
X112584590Y-90479681D01*
X112306694Y-90594790D01*
X112056594Y-90761901D01*
X111843901Y-90974594D01*
X111760000Y-91100161D01*
X111676099Y-90974594D01*
X111463406Y-90761901D01*
X111213306Y-90594790D01*
X110935410Y-90479681D01*
X110640396Y-90421000D01*
X110339604Y-90421000D01*
X110044590Y-90479681D01*
X109766694Y-90594790D01*
X109516594Y-90761901D01*
X109303901Y-90974594D01*
X109220000Y-91100161D01*
X109136099Y-90974594D01*
X108923406Y-90761901D01*
X108673306Y-90594790D01*
X108395410Y-90479681D01*
X108100396Y-90421000D01*
X107799604Y-90421000D01*
X107504590Y-90479681D01*
X107226694Y-90594790D01*
X106976594Y-90761901D01*
X106763901Y-90974594D01*
X106680000Y-91100161D01*
X106596099Y-90974594D01*
X106383406Y-90761901D01*
X106133306Y-90594790D01*
X105855410Y-90479681D01*
X105560396Y-90421000D01*
X105259604Y-90421000D01*
X104964590Y-90479681D01*
X104686694Y-90594790D01*
X104436594Y-90761901D01*
X104223901Y-90974594D01*
X104140000Y-91100161D01*
X104056099Y-90974594D01*
X103843406Y-90761901D01*
X103593306Y-90594790D01*
X103315410Y-90479681D01*
X103020396Y-90421000D01*
X102719604Y-90421000D01*
X102424590Y-90479681D01*
X102146694Y-90594790D01*
X101896594Y-90761901D01*
X101683901Y-90974594D01*
X101600000Y-91100161D01*
X101516099Y-90974594D01*
X101303406Y-90761901D01*
X101053306Y-90594790D01*
X100775410Y-90479681D01*
X100480396Y-90421000D01*
X100179604Y-90421000D01*
X99884590Y-90479681D01*
X99606694Y-90594790D01*
X99356594Y-90761901D01*
X99143901Y-90974594D01*
X99060000Y-91100161D01*
X98976099Y-90974594D01*
X98763406Y-90761901D01*
X98513306Y-90594790D01*
X98235410Y-90479681D01*
X97940396Y-90421000D01*
X97639604Y-90421000D01*
X97344590Y-90479681D01*
X97066694Y-90594790D01*
X96816594Y-90761901D01*
X96603901Y-90974594D01*
X96520000Y-91100161D01*
X96436099Y-90974594D01*
X96223406Y-90761901D01*
X95973306Y-90594790D01*
X95695410Y-90479681D01*
X95400396Y-90421000D01*
X95099604Y-90421000D01*
X94804590Y-90479681D01*
X94526694Y-90594790D01*
X94276594Y-90761901D01*
X94063901Y-90974594D01*
X93980000Y-91100161D01*
X93896099Y-90974594D01*
X93683406Y-90761901D01*
X93433306Y-90594790D01*
X93155410Y-90479681D01*
X92860396Y-90421000D01*
X92604821Y-90421000D01*
X80375945Y-78192125D01*
X80455410Y-78176319D01*
X80733306Y-78061210D01*
X80983406Y-77894099D01*
X81196099Y-77681406D01*
X81280000Y-77555839D01*
X81363901Y-77681406D01*
X81576594Y-77894099D01*
X81826694Y-78061210D01*
X82104590Y-78176319D01*
X82399604Y-78235000D01*
X82700396Y-78235000D01*
X82995410Y-78176319D01*
X83273306Y-78061210D01*
X83523406Y-77894099D01*
X83736099Y-77681406D01*
X83820000Y-77555839D01*
X83903901Y-77681406D01*
X84116594Y-77894099D01*
X84366694Y-78061210D01*
X84644590Y-78176319D01*
X84939604Y-78235000D01*
X85240396Y-78235000D01*
X85535410Y-78176319D01*
X85813306Y-78061210D01*
X86063406Y-77894099D01*
X86276099Y-77681406D01*
X86360000Y-77555839D01*
X86443901Y-77681406D01*
X86656594Y-77894099D01*
X86906694Y-78061210D01*
X87184590Y-78176319D01*
X87479604Y-78235000D01*
X87780396Y-78235000D01*
X88075410Y-78176319D01*
X88353306Y-78061210D01*
X88603406Y-77894099D01*
X88816099Y-77681406D01*
X88900000Y-77555839D01*
X88983901Y-77681406D01*
X89196594Y-77894099D01*
X89446694Y-78061210D01*
X89724590Y-78176319D01*
X90019604Y-78235000D01*
X90320396Y-78235000D01*
X90615410Y-78176319D01*
X90893306Y-78061210D01*
X91143406Y-77894099D01*
X91356099Y-77681406D01*
X91440000Y-77555839D01*
X91523901Y-77681406D01*
X91736594Y-77894099D01*
X91986694Y-78061210D01*
X92264590Y-78176319D01*
X92559604Y-78235000D01*
X92860396Y-78235000D01*
X93155410Y-78176319D01*
X93433306Y-78061210D01*
X93683406Y-77894099D01*
X93896099Y-77681406D01*
X93980000Y-77555839D01*
X94063901Y-77681406D01*
X94276594Y-77894099D01*
X94526694Y-78061210D01*
X94804590Y-78176319D01*
X95099604Y-78235000D01*
X95400396Y-78235000D01*
X95695410Y-78176319D01*
X95973306Y-78061210D01*
X96223406Y-77894099D01*
X96436099Y-77681406D01*
X96520000Y-77555839D01*
X96603901Y-77681406D01*
X96816594Y-77894099D01*
X97066694Y-78061210D01*
X97344590Y-78176319D01*
X97639604Y-78235000D01*
X97940396Y-78235000D01*
X98235410Y-78176319D01*
X98513306Y-78061210D01*
X98763406Y-77894099D01*
X98976099Y-77681406D01*
X99060000Y-77555839D01*
X99143901Y-77681406D01*
X99356594Y-77894099D01*
X99606694Y-78061210D01*
X99884590Y-78176319D01*
X100179604Y-78235000D01*
X100480396Y-78235000D01*
X100775410Y-78176319D01*
X101053306Y-78061210D01*
X101303406Y-77894099D01*
X101516099Y-77681406D01*
X101600000Y-77555839D01*
X101683901Y-77681406D01*
X101896594Y-77894099D01*
X102146694Y-78061210D01*
X102424590Y-78176319D01*
X102719604Y-78235000D01*
X103020396Y-78235000D01*
X103315410Y-78176319D01*
X103593306Y-78061210D01*
X103843406Y-77894099D01*
X104056099Y-77681406D01*
X104140000Y-77555839D01*
X104223901Y-77681406D01*
X104436594Y-77894099D01*
X104686694Y-78061210D01*
X104964590Y-78176319D01*
X105259604Y-78235000D01*
X105560396Y-78235000D01*
X105855410Y-78176319D01*
X106133306Y-78061210D01*
X106383406Y-77894099D01*
X106596099Y-77681406D01*
X106680000Y-77555839D01*
X106763901Y-77681406D01*
X106976594Y-77894099D01*
X107226694Y-78061210D01*
X107504590Y-78176319D01*
X107799604Y-78235000D01*
X108100396Y-78235000D01*
X108395410Y-78176319D01*
X108673306Y-78061210D01*
X108923406Y-77894099D01*
X109136099Y-77681406D01*
X109220000Y-77555839D01*
X109303901Y-77681406D01*
X109516594Y-77894099D01*
X109766694Y-78061210D01*
X110044590Y-78176319D01*
X110339604Y-78235000D01*
X110640396Y-78235000D01*
X110935410Y-78176319D01*
X111213306Y-78061210D01*
X111463406Y-77894099D01*
X111676099Y-77681406D01*
X111819677Y-77466525D01*
X111877615Y-77563131D01*
X112066586Y-77771519D01*
X112292580Y-77939037D01*
X112546913Y-78059246D01*
X112680961Y-78099904D01*
X112903000Y-77977915D01*
X112903000Y-76835000D01*
X112883000Y-76835000D01*
X112883000Y-76581000D01*
X112903000Y-76581000D01*
X112903000Y-76561000D01*
X113157000Y-76561000D01*
X113157000Y-76581000D01*
X113177000Y-76581000D01*
X113177000Y-76835000D01*
X113157000Y-76835000D01*
X113157000Y-77977915D01*
X113379039Y-78099904D01*
X113513087Y-78059246D01*
X113767420Y-77939037D01*
X113993414Y-77771519D01*
X114182385Y-77563131D01*
X114240323Y-77466525D01*
X114383901Y-77681406D01*
X114596594Y-77894099D01*
X114846694Y-78061210D01*
X115124590Y-78176319D01*
X115419604Y-78235000D01*
X115720396Y-78235000D01*
X116015410Y-78176319D01*
X116293306Y-78061210D01*
X116543406Y-77894099D01*
X116756099Y-77681406D01*
X116923210Y-77431306D01*
X117038319Y-77153410D01*
X117097000Y-76858396D01*
X117097000Y-76557604D01*
X117058621Y-76364658D01*
X118951797Y-76332185D01*
X124790454Y-82170843D01*
G37*
X124790454Y-82170843D02*
X124790460Y-82170848D01*
X126296997Y-83677385D01*
X178186134Y-137412258D01*
X178215274Y-147467930D01*
X146060906Y-148271276D01*
X142893330Y-145128500D01*
X172635580Y-145128500D01*
X172661201Y-145388637D01*
X172737081Y-145638778D01*
X172860302Y-145869308D01*
X173026130Y-146071370D01*
X173228192Y-146237198D01*
X173458722Y-146360419D01*
X173708863Y-146436299D01*
X173903816Y-146455500D01*
X174584184Y-146455500D01*
X174779137Y-146436299D01*
X175029278Y-146360419D01*
X175259808Y-146237198D01*
X175461870Y-146071370D01*
X175627698Y-145869308D01*
X175750919Y-145638778D01*
X175826799Y-145388637D01*
X175852420Y-145128500D01*
X175826799Y-144868363D01*
X175750919Y-144618222D01*
X175627698Y-144387692D01*
X175461870Y-144185630D01*
X175323417Y-144072005D01*
X175482078Y-143911974D01*
X175616421Y-143709033D01*
X175708591Y-143483782D01*
X175712462Y-143446109D01*
X175587731Y-143255500D01*
X174371000Y-143255500D01*
X174371000Y-143275500D01*
X174117000Y-143275500D01*
X174117000Y-143255500D01*
X172900269Y-143255500D01*
X172775538Y-143446109D01*
X172779409Y-143483782D01*
X172871579Y-143709033D01*
X173005922Y-143911974D01*
X173164583Y-144072005D01*
X173026130Y-144185630D01*
X172860302Y-144387692D01*
X172737081Y-144618222D01*
X172661201Y-144868363D01*
X172635580Y-145128500D01*
X142893330Y-145128500D01*
X138861766Y-141128500D01*
X172635580Y-141128500D01*
X172661201Y-141388637D01*
X172737081Y-141638778D01*
X172860302Y-141869308D01*
X173026130Y-142071370D01*
X173164583Y-142184995D01*
X173005922Y-142345026D01*
X172871579Y-142547967D01*
X172779409Y-142773218D01*
X172775538Y-142810891D01*
X172900269Y-143001500D01*
X174117000Y-143001500D01*
X174117000Y-142981500D01*
X174371000Y-142981500D01*
X174371000Y-143001500D01*
X175587731Y-143001500D01*
X175712462Y-142810891D01*
X175708591Y-142773218D01*
X175616421Y-142547967D01*
X175482078Y-142345026D01*
X175323417Y-142184995D01*
X175461870Y-142071370D01*
X175627698Y-141869308D01*
X175750919Y-141638778D01*
X175826799Y-141388637D01*
X175852420Y-141128500D01*
X175826799Y-140868363D01*
X175750919Y-140618222D01*
X175627698Y-140387692D01*
X175495534Y-140226650D01*
X175562331Y-140171831D01*
X175684270Y-140023247D01*
X175774880Y-139853728D01*
X175830677Y-139669790D01*
X175849517Y-139478501D01*
X175849517Y-138778499D01*
X175830677Y-138587210D01*
X175774880Y-138403272D01*
X175684270Y-138233753D01*
X175562331Y-138085169D01*
X175413747Y-137963230D01*
X175244228Y-137872620D01*
X175060290Y-137816823D01*
X174869001Y-137797983D01*
X173618999Y-137797983D01*
X173427710Y-137816823D01*
X173243772Y-137872620D01*
X173074253Y-137963230D01*
X172925669Y-138085169D01*
X172803730Y-138233753D01*
X172713120Y-138403272D01*
X172657323Y-138587210D01*
X172638483Y-138778499D01*
X172638483Y-139478501D01*
X172657323Y-139669790D01*
X172713120Y-139853728D01*
X172803730Y-140023247D01*
X172925669Y-140171831D01*
X172992466Y-140226650D01*
X172860302Y-140387692D01*
X172737081Y-140618222D01*
X172661201Y-140868363D01*
X172635580Y-141128500D01*
X138861766Y-141128500D01*
X107698534Y-110209257D01*
X107679227Y-110193539D01*
X107657224Y-110181889D01*
X107633372Y-110174756D01*
X107611301Y-110172431D01*
X76962000Y-109637619D01*
X76962000Y-105119003D01*
X77515824Y-104748950D01*
X78034950Y-104229824D01*
X78442824Y-103619396D01*
X78595418Y-103251002D01*
X78689185Y-103251002D01*
X78568519Y-103480891D01*
X78665843Y-103755252D01*
X78814822Y-104005355D01*
X79009731Y-104221588D01*
X79243080Y-104395641D01*
X79505901Y-104520825D01*
X79653110Y-104565476D01*
X79883000Y-104444155D01*
X79883000Y-103251000D01*
X79863000Y-103251000D01*
X79863000Y-102997000D01*
X79883000Y-102997000D01*
X79883000Y-102977000D01*
X80137000Y-102977000D01*
X80137000Y-102997000D01*
X80157000Y-102997000D01*
X80157000Y-103251000D01*
X80137000Y-103251000D01*
X80137000Y-104444155D01*
X80366890Y-104565476D01*
X80514099Y-104520825D01*
X80776920Y-104395641D01*
X81010269Y-104221588D01*
X81205178Y-104005355D01*
X81222656Y-103976014D01*
X81325064Y-104129279D01*
X81544721Y-104348936D01*
X81803011Y-104521519D01*
X82090006Y-104640396D01*
X82394679Y-104701000D01*
X82705321Y-104701000D01*
X83009994Y-104640396D01*
X83296989Y-104521519D01*
X83555279Y-104348936D01*
X83774936Y-104129279D01*
X83820000Y-104061836D01*
X83865064Y-104129279D01*
X84084721Y-104348936D01*
X84343011Y-104521519D01*
X84630006Y-104640396D01*
X84934679Y-104701000D01*
X85245321Y-104701000D01*
X85549994Y-104640396D01*
X85836989Y-104521519D01*
X86095279Y-104348936D01*
X86314936Y-104129279D01*
X86360000Y-104061836D01*
X86405064Y-104129279D01*
X86624721Y-104348936D01*
X86883011Y-104521519D01*
X87170006Y-104640396D01*
X87474679Y-104701000D01*
X87785321Y-104701000D01*
X88089994Y-104640396D01*
X88376989Y-104521519D01*
X88635279Y-104348936D01*
X88854936Y-104129279D01*
X88900000Y-104061836D01*
X88945064Y-104129279D01*
X89164721Y-104348936D01*
X89423011Y-104521519D01*
X89710006Y-104640396D01*
X90014679Y-104701000D01*
X90325321Y-104701000D01*
X90629994Y-104640396D01*
X90916989Y-104521519D01*
X91175279Y-104348936D01*
X91394936Y-104129279D01*
X91440000Y-104061836D01*
X91485064Y-104129279D01*
X91704721Y-104348936D01*
X91963011Y-104521519D01*
X92250006Y-104640396D01*
X92554679Y-104701000D01*
X92865321Y-104701000D01*
X93169994Y-104640396D01*
X93456989Y-104521519D01*
X93715279Y-104348936D01*
X93934936Y-104129279D01*
X93980000Y-104061836D01*
X94025064Y-104129279D01*
X94244721Y-104348936D01*
X94503011Y-104521519D01*
X94790006Y-104640396D01*
X95094679Y-104701000D01*
X95405321Y-104701000D01*
X95709994Y-104640396D01*
X95996989Y-104521519D01*
X96255279Y-104348936D01*
X96474936Y-104129279D01*
X96520000Y-104061836D01*
X96565064Y-104129279D01*
X96784721Y-104348936D01*
X97043011Y-104521519D01*
X97330006Y-104640396D01*
X97634679Y-104701000D01*
X97945321Y-104701000D01*
X98249994Y-104640396D01*
X98536989Y-104521519D01*
X98795279Y-104348936D01*
X99014936Y-104129279D01*
X99117344Y-103976014D01*
X99134822Y-104005355D01*
X99329731Y-104221588D01*
X99563080Y-104395641D01*
X99825901Y-104520825D01*
X99973110Y-104565476D01*
X100203000Y-104444155D01*
X100203000Y-103251000D01*
X100183000Y-103251000D01*
X100183000Y-102997000D01*
X100203000Y-102997000D01*
X100203000Y-102977000D01*
X100457000Y-102977000D01*
X100457000Y-102997000D01*
X100477000Y-102997000D01*
X100477000Y-103251000D01*
X100457000Y-103251000D01*
X100457000Y-104444155D01*
X100686890Y-104565476D01*
X100834099Y-104520825D01*
X101096920Y-104395641D01*
X101330269Y-104221588D01*
X101525178Y-104005355D01*
X101542656Y-103976014D01*
X101645064Y-104129279D01*
X101864721Y-104348936D01*
X102123011Y-104521519D01*
X102410006Y-104640396D01*
X102714679Y-104701000D01*
X103025321Y-104701000D01*
X103329994Y-104640396D01*
X103616989Y-104521519D01*
X103875279Y-104348936D01*
X104094936Y-104129279D01*
X104140000Y-104061836D01*
X104185064Y-104129279D01*
X104404721Y-104348936D01*
X104663011Y-104521519D01*
X104950006Y-104640396D01*
X105254679Y-104701000D01*
X105565321Y-104701000D01*
X105869994Y-104640396D01*
X106156989Y-104521519D01*
X106415279Y-104348936D01*
X106634936Y-104129279D01*
X106680000Y-104061836D01*
X106725064Y-104129279D01*
X106944721Y-104348936D01*
X107203011Y-104521519D01*
X107490006Y-104640396D01*
X107794679Y-104701000D01*
X108105321Y-104701000D01*
X108409994Y-104640396D01*
X108696989Y-104521519D01*
X108955279Y-104348936D01*
X109174936Y-104129279D01*
X109220000Y-104061836D01*
X109265064Y-104129279D01*
X109484721Y-104348936D01*
X109743011Y-104521519D01*
X110030006Y-104640396D01*
X110334679Y-104701000D01*
X110645321Y-104701000D01*
X110949994Y-104640396D01*
X111236989Y-104521519D01*
X111495279Y-104348936D01*
X111714936Y-104129279D01*
X111760000Y-104061836D01*
X111805064Y-104129279D01*
X112024721Y-104348936D01*
X112283011Y-104521519D01*
X112570006Y-104640396D01*
X112874679Y-104701000D01*
X113185321Y-104701000D01*
X113489994Y-104640396D01*
X113776989Y-104521519D01*
X114035279Y-104348936D01*
X114254936Y-104129279D01*
X114300000Y-104061836D01*
X114345064Y-104129279D01*
X114564721Y-104348936D01*
X114823011Y-104521519D01*
X115110006Y-104640396D01*
X115414679Y-104701000D01*
X115725321Y-104701000D01*
X116029994Y-104640396D01*
X116316989Y-104521519D01*
X116575279Y-104348936D01*
X116794936Y-104129279D01*
X116840000Y-104061836D01*
X116885064Y-104129279D01*
X117104721Y-104348936D01*
X117363011Y-104521519D01*
X117650006Y-104640396D01*
X117954679Y-104701000D01*
X118265321Y-104701000D01*
X118569994Y-104640396D01*
X118856989Y-104521519D01*
X119115279Y-104348936D01*
X119334936Y-104129279D01*
X119380000Y-104061836D01*
X119425064Y-104129279D01*
X119644721Y-104348936D01*
X119903011Y-104521519D01*
X120190006Y-104640396D01*
X120494679Y-104701000D01*
X120805321Y-104701000D01*
X121109994Y-104640396D01*
X121396989Y-104521519D01*
X121655279Y-104348936D01*
X121874936Y-104129279D01*
X121920000Y-104061836D01*
X121965064Y-104129279D01*
X122184721Y-104348936D01*
X122443011Y-104521519D01*
X122730006Y-104640396D01*
X123034679Y-104701000D01*
X123345321Y-104701000D01*
X123649994Y-104640396D01*
X123936989Y-104521519D01*
X124195279Y-104348936D01*
X124414936Y-104129279D01*
X124460000Y-104061836D01*
X124505064Y-104129279D01*
X124724721Y-104348936D01*
X124983011Y-104521519D01*
X125270006Y-104640396D01*
X125574679Y-104701000D01*
X125885321Y-104701000D01*
X126189994Y-104640396D01*
X126476989Y-104521519D01*
X126735279Y-104348936D01*
X126954936Y-104129279D01*
X127000000Y-104061836D01*
X127045064Y-104129279D01*
X127264721Y-104348936D01*
X127523011Y-104521519D01*
X127810006Y-104640396D01*
X128114679Y-104701000D01*
X128425321Y-104701000D01*
X128729994Y-104640396D01*
X129016989Y-104521519D01*
X129275279Y-104348936D01*
X129494936Y-104129279D01*
X129667519Y-103870989D01*
X129786396Y-103583994D01*
X129798113Y-103525090D01*
X129837176Y-103619396D01*
X130245050Y-104229824D01*
X130764176Y-104748950D01*
X131374604Y-105156824D01*
X132052874Y-105437773D01*
X132772923Y-105581000D01*
X133507077Y-105581000D01*
X134227126Y-105437773D01*
X134905396Y-105156824D01*
X135515824Y-104748950D01*
X136034950Y-104229824D01*
X136442824Y-103619396D01*
X136723773Y-102941126D01*
X136867000Y-102221077D01*
X136867000Y-101486923D01*
X136723773Y-100766874D01*
X136442824Y-100088604D01*
X136034950Y-99478176D01*
X135515824Y-98959050D01*
X134905396Y-98551176D01*
X134227126Y-98270227D01*
X133507077Y-98127000D01*
X132772923Y-98127000D01*
X132052874Y-98270227D01*
X131374604Y-98551176D01*
X130764176Y-98959050D01*
X130245050Y-99478176D01*
X129837176Y-100088604D01*
X129798113Y-100182910D01*
X129786396Y-100124006D01*
X129667519Y-99837011D01*
X129494936Y-99578721D01*
X129275279Y-99359064D01*
X129016989Y-99186481D01*
X128729994Y-99067604D01*
X128425321Y-99007000D01*
X128114679Y-99007000D01*
X127810006Y-99067604D01*
X127523011Y-99186481D01*
X127264721Y-99359064D01*
X127045064Y-99578721D01*
X127000000Y-99646164D01*
X126954936Y-99578721D01*
X126735279Y-99359064D01*
X126476989Y-99186481D01*
X126189994Y-99067604D01*
X125885321Y-99007000D01*
X125574679Y-99007000D01*
X125270006Y-99067604D01*
X124983011Y-99186481D01*
X124724721Y-99359064D01*
X124505064Y-99578721D01*
X124460000Y-99646164D01*
X124414936Y-99578721D01*
X124195279Y-99359064D01*
X123936989Y-99186481D01*
X123649994Y-99067604D01*
X123345321Y-99007000D01*
X123034679Y-99007000D01*
X122730006Y-99067604D01*
X122443011Y-99186481D01*
X122184721Y-99359064D01*
X121965064Y-99578721D01*
X121920000Y-99646164D01*
X121874936Y-99578721D01*
X121655279Y-99359064D01*
X121396989Y-99186481D01*
X121109994Y-99067604D01*
X120805321Y-99007000D01*
X120494679Y-99007000D01*
X120190006Y-99067604D01*
X119903011Y-99186481D01*
X119644721Y-99359064D01*
X119425064Y-99578721D01*
X119380000Y-99646164D01*
X119334936Y-99578721D01*
X119115279Y-99359064D01*
X118856989Y-99186481D01*
X118569994Y-99067604D01*
X118265321Y-99007000D01*
X117954679Y-99007000D01*
X117650006Y-99067604D01*
X117363011Y-99186481D01*
X117104721Y-99359064D01*
X116885064Y-99578721D01*
X116840000Y-99646164D01*
X116794936Y-99578721D01*
X116575279Y-99359064D01*
X116316989Y-99186481D01*
X116029994Y-99067604D01*
X115725321Y-99007000D01*
X115414679Y-99007000D01*
X115110006Y-99067604D01*
X114823011Y-99186481D01*
X114564721Y-99359064D01*
X114345064Y-99578721D01*
X114300000Y-99646164D01*
X114254936Y-99578721D01*
X114035279Y-99359064D01*
X113776989Y-99186481D01*
X113489994Y-99067604D01*
X113185321Y-99007000D01*
X112874679Y-99007000D01*
X112570006Y-99067604D01*
X112283011Y-99186481D01*
X112024721Y-99359064D01*
X111805064Y-99578721D01*
X111760000Y-99646164D01*
X111714936Y-99578721D01*
X111495279Y-99359064D01*
X111236989Y-99186481D01*
X110949994Y-99067604D01*
X110645321Y-99007000D01*
X110334679Y-99007000D01*
X110030006Y-99067604D01*
X109743011Y-99186481D01*
X109484721Y-99359064D01*
X109265064Y-99578721D01*
X109220000Y-99646164D01*
X109174936Y-99578721D01*
X108955279Y-99359064D01*
X108696989Y-99186481D01*
X108409994Y-99067604D01*
X108105321Y-99007000D01*
X107794679Y-99007000D01*
X107490006Y-99067604D01*
X107203011Y-99186481D01*
X106944721Y-99359064D01*
X106725064Y-99578721D01*
X106680000Y-99646164D01*
X106634936Y-99578721D01*
X106415279Y-99359064D01*
X106156989Y-99186481D01*
X105869994Y-99067604D01*
X105565321Y-99007000D01*
X105254679Y-99007000D01*
X104950006Y-99067604D01*
X104663011Y-99186481D01*
X104404721Y-99359064D01*
X104185064Y-99578721D01*
X104140000Y-99646164D01*
X104094936Y-99578721D01*
X103875279Y-99359064D01*
X103616989Y-99186481D01*
X103329994Y-99067604D01*
X103025321Y-99007000D01*
X102714679Y-99007000D01*
X102410006Y-99067604D01*
X102123011Y-99186481D01*
X101864721Y-99359064D01*
X101645064Y-99578721D01*
X101600000Y-99646164D01*
X101554936Y-99578721D01*
X101335279Y-99359064D01*
X101076989Y-99186481D01*
X100789994Y-99067604D01*
X100485321Y-99007000D01*
X100174679Y-99007000D01*
X99870006Y-99067604D01*
X99583011Y-99186481D01*
X99324721Y-99359064D01*
X99105064Y-99578721D01*
X99060000Y-99646164D01*
X99014936Y-99578721D01*
X98795279Y-99359064D01*
X98536989Y-99186481D01*
X98249994Y-99067604D01*
X97945321Y-99007000D01*
X97634679Y-99007000D01*
X97330006Y-99067604D01*
X97043011Y-99186481D01*
X96784721Y-99359064D01*
X96565064Y-99578721D01*
X96520000Y-99646164D01*
X96474936Y-99578721D01*
X96255279Y-99359064D01*
X95996989Y-99186481D01*
X95709994Y-99067604D01*
X95405321Y-99007000D01*
X95094679Y-99007000D01*
X94790006Y-99067604D01*
X94503011Y-99186481D01*
X94244721Y-99359064D01*
X94025064Y-99578721D01*
X93980000Y-99646164D01*
X93934936Y-99578721D01*
X93715279Y-99359064D01*
X93456989Y-99186481D01*
X93169994Y-99067604D01*
X92865321Y-99007000D01*
X92554679Y-99007000D01*
X92250006Y-99067604D01*
X91963011Y-99186481D01*
X91704721Y-99359064D01*
X91485064Y-99578721D01*
X91440000Y-99646164D01*
X91394936Y-99578721D01*
X91175279Y-99359064D01*
X90916989Y-99186481D01*
X90629994Y-99067604D01*
X90325321Y-99007000D01*
X90186819Y-99007000D01*
X87012049Y-95832231D01*
X86976755Y-95789225D01*
X86805147Y-95648390D01*
X86609361Y-95543740D01*
X86396921Y-95479297D01*
X86231355Y-95462990D01*
X86231344Y-95462990D01*
X86175990Y-95457538D01*
X86120636Y-95462990D01*
X81760198Y-95462990D01*
X83307764Y-93915425D01*
X83350765Y-93880135D01*
X83386055Y-93837134D01*
X83386058Y-93837131D01*
X83491600Y-93708527D01*
X83596250Y-93512741D01*
X83606632Y-93478517D01*
X83660693Y-93300301D01*
X83677000Y-93134735D01*
X83677000Y-93134725D01*
X83682452Y-93079370D01*
X83677000Y-93024016D01*
X83677000Y-92980505D01*
X83736099Y-92921406D01*
X83820000Y-92795839D01*
X83903901Y-92921406D01*
X84116594Y-93134099D01*
X84366694Y-93301210D01*
X84644590Y-93416319D01*
X84939604Y-93475000D01*
X85240396Y-93475000D01*
X85535410Y-93416319D01*
X85813306Y-93301210D01*
X86063406Y-93134099D01*
X86276099Y-92921406D01*
X86360000Y-92795839D01*
X86443901Y-92921406D01*
X86656594Y-93134099D01*
X86906694Y-93301210D01*
X87184590Y-93416319D01*
X87479604Y-93475000D01*
X87780396Y-93475000D01*
X88075410Y-93416319D01*
X88353306Y-93301210D01*
X88603406Y-93134099D01*
X88816099Y-92921406D01*
X88900000Y-92795839D01*
X88983901Y-92921406D01*
X89196594Y-93134099D01*
X89446694Y-93301210D01*
X89724590Y-93416319D01*
X90019604Y-93475000D01*
X90320396Y-93475000D01*
X90615410Y-93416319D01*
X90893306Y-93301210D01*
X91143406Y-93134099D01*
X91356099Y-92921406D01*
X91440000Y-92795839D01*
X91523901Y-92921406D01*
X91736594Y-93134099D01*
X91986694Y-93301210D01*
X92264590Y-93416319D01*
X92559604Y-93475000D01*
X92860396Y-93475000D01*
X93155410Y-93416319D01*
X93433306Y-93301210D01*
X93683406Y-93134099D01*
X93896099Y-92921406D01*
X93980000Y-92795839D01*
X94063901Y-92921406D01*
X94276594Y-93134099D01*
X94526694Y-93301210D01*
X94804590Y-93416319D01*
X95099604Y-93475000D01*
X95400396Y-93475000D01*
X95695410Y-93416319D01*
X95973306Y-93301210D01*
X96223406Y-93134099D01*
X96436099Y-92921406D01*
X96520000Y-92795839D01*
X96603901Y-92921406D01*
X96816594Y-93134099D01*
X97066694Y-93301210D01*
X97344590Y-93416319D01*
X97639604Y-93475000D01*
X97940396Y-93475000D01*
X98235410Y-93416319D01*
X98513306Y-93301210D01*
X98763406Y-93134099D01*
X98976099Y-92921406D01*
X99060000Y-92795839D01*
X99143901Y-92921406D01*
X99356594Y-93134099D01*
X99606694Y-93301210D01*
X99884590Y-93416319D01*
X100179604Y-93475000D01*
X100480396Y-93475000D01*
X100775410Y-93416319D01*
X101053306Y-93301210D01*
X101303406Y-93134099D01*
X101516099Y-92921406D01*
X101600000Y-92795839D01*
X101683901Y-92921406D01*
X101896594Y-93134099D01*
X102146694Y-93301210D01*
X102424590Y-93416319D01*
X102719604Y-93475000D01*
X103020396Y-93475000D01*
X103315410Y-93416319D01*
X103593306Y-93301210D01*
X103843406Y-93134099D01*
X104056099Y-92921406D01*
X104140000Y-92795839D01*
X104223901Y-92921406D01*
X104436594Y-93134099D01*
X104686694Y-93301210D01*
X104964590Y-93416319D01*
X105259604Y-93475000D01*
X105560396Y-93475000D01*
X105855410Y-93416319D01*
X106133306Y-93301210D01*
X106383406Y-93134099D01*
X106596099Y-92921406D01*
X106680000Y-92795839D01*
X106763901Y-92921406D01*
X106976594Y-93134099D01*
X107226694Y-93301210D01*
X107504590Y-93416319D01*
X107799604Y-93475000D01*
X108100396Y-93475000D01*
X108395410Y-93416319D01*
X108673306Y-93301210D01*
X108923406Y-93134099D01*
X109136099Y-92921406D01*
X109220000Y-92795839D01*
X109303901Y-92921406D01*
X109516594Y-93134099D01*
X109766694Y-93301210D01*
X110044590Y-93416319D01*
X110339604Y-93475000D01*
X110640396Y-93475000D01*
X110935410Y-93416319D01*
X111213306Y-93301210D01*
X111463406Y-93134099D01*
X111676099Y-92921406D01*
X111760000Y-92795839D01*
X111843901Y-92921406D01*
X112056594Y-93134099D01*
X112306694Y-93301210D01*
X112584590Y-93416319D01*
X112879604Y-93475000D01*
X113180396Y-93475000D01*
X113475410Y-93416319D01*
X113753306Y-93301210D01*
X114003406Y-93134099D01*
X114216099Y-92921406D01*
X114300000Y-92795839D01*
X114383901Y-92921406D01*
X114596594Y-93134099D01*
X114846694Y-93301210D01*
X115124590Y-93416319D01*
X115419604Y-93475000D01*
X115720396Y-93475000D01*
X116015410Y-93416319D01*
X116293306Y-93301210D01*
X116543406Y-93134099D01*
X116756099Y-92921406D01*
X116923210Y-92671306D01*
X117038319Y-92393410D01*
X117097000Y-92098396D01*
X117097000Y-91797604D01*
X117038319Y-91502590D01*
X116923210Y-91224694D01*
X116756099Y-90974594D01*
X116543406Y-90761901D01*
X116293306Y-90594790D01*
X116015410Y-90479681D01*
X115720396Y-90421000D01*
X115419604Y-90421000D01*
X115124590Y-90479681D01*
X114846694Y-90594790D01*
X114596594Y-90761901D01*
X114383901Y-90974594D01*
X114300000Y-91100161D01*
X114216099Y-90974594D01*
X114003406Y-90761901D01*
X113753306Y-90594790D01*
X113475410Y-90479681D01*
X113180396Y-90421000D01*
X112879604Y-90421000D01*
X112584590Y-90479681D01*
X112306694Y-90594790D01*
X112056594Y-90761901D01*
X111843901Y-90974594D01*
X111760000Y-91100161D01*
X111676099Y-90974594D01*
X111463406Y-90761901D01*
X111213306Y-90594790D01*
X110935410Y-90479681D01*
X110640396Y-90421000D01*
X110339604Y-90421000D01*
X110044590Y-90479681D01*
X109766694Y-90594790D01*
X109516594Y-90761901D01*
X109303901Y-90974594D01*
X109220000Y-91100161D01*
X109136099Y-90974594D01*
X108923406Y-90761901D01*
X108673306Y-90594790D01*
X108395410Y-90479681D01*
X108100396Y-90421000D01*
X107799604Y-90421000D01*
X107504590Y-90479681D01*
X107226694Y-90594790D01*
X106976594Y-90761901D01*
X106763901Y-90974594D01*
X106680000Y-91100161D01*
X106596099Y-90974594D01*
X106383406Y-90761901D01*
X106133306Y-90594790D01*
X105855410Y-90479681D01*
X105560396Y-90421000D01*
X105259604Y-90421000D01*
X104964590Y-90479681D01*
X104686694Y-90594790D01*
X104436594Y-90761901D01*
X104223901Y-90974594D01*
X104140000Y-91100161D01*
X104056099Y-90974594D01*
X103843406Y-90761901D01*
X103593306Y-90594790D01*
X103315410Y-90479681D01*
X103020396Y-90421000D01*
X102719604Y-90421000D01*
X102424590Y-90479681D01*
X102146694Y-90594790D01*
X101896594Y-90761901D01*
X101683901Y-90974594D01*
X101600000Y-91100161D01*
X101516099Y-90974594D01*
X101303406Y-90761901D01*
X101053306Y-90594790D01*
X100775410Y-90479681D01*
X100480396Y-90421000D01*
X100179604Y-90421000D01*
X99884590Y-90479681D01*
X99606694Y-90594790D01*
X99356594Y-90761901D01*
X99143901Y-90974594D01*
X99060000Y-91100161D01*
X98976099Y-90974594D01*
X98763406Y-90761901D01*
X98513306Y-90594790D01*
X98235410Y-90479681D01*
X97940396Y-90421000D01*
X97639604Y-90421000D01*
X97344590Y-90479681D01*
X97066694Y-90594790D01*
X96816594Y-90761901D01*
X96603901Y-90974594D01*
X96520000Y-91100161D01*
X96436099Y-90974594D01*
X96223406Y-90761901D01*
X95973306Y-90594790D01*
X95695410Y-90479681D01*
X95400396Y-90421000D01*
X95099604Y-90421000D01*
X94804590Y-90479681D01*
X94526694Y-90594790D01*
X94276594Y-90761901D01*
X94063901Y-90974594D01*
X93980000Y-91100161D01*
X93896099Y-90974594D01*
X93683406Y-90761901D01*
X93433306Y-90594790D01*
X93155410Y-90479681D01*
X92860396Y-90421000D01*
X92604821Y-90421000D01*
X80375945Y-78192125D01*
X80455410Y-78176319D01*
X80733306Y-78061210D01*
X80983406Y-77894099D01*
X81196099Y-77681406D01*
X81280000Y-77555839D01*
X81363901Y-77681406D01*
X81576594Y-77894099D01*
X81826694Y-78061210D01*
X82104590Y-78176319D01*
X82399604Y-78235000D01*
X82700396Y-78235000D01*
X82995410Y-78176319D01*
X83273306Y-78061210D01*
X83523406Y-77894099D01*
X83736099Y-77681406D01*
X83820000Y-77555839D01*
X83903901Y-77681406D01*
X84116594Y-77894099D01*
X84366694Y-78061210D01*
X84644590Y-78176319D01*
X84939604Y-78235000D01*
X85240396Y-78235000D01*
X85535410Y-78176319D01*
X85813306Y-78061210D01*
X86063406Y-77894099D01*
X86276099Y-77681406D01*
X86360000Y-77555839D01*
X86443901Y-77681406D01*
X86656594Y-77894099D01*
X86906694Y-78061210D01*
X87184590Y-78176319D01*
X87479604Y-78235000D01*
X87780396Y-78235000D01*
X88075410Y-78176319D01*
X88353306Y-78061210D01*
X88603406Y-77894099D01*
X88816099Y-77681406D01*
X88900000Y-77555839D01*
X88983901Y-77681406D01*
X89196594Y-77894099D01*
X89446694Y-78061210D01*
X89724590Y-78176319D01*
X90019604Y-78235000D01*
X90320396Y-78235000D01*
X90615410Y-78176319D01*
X90893306Y-78061210D01*
X91143406Y-77894099D01*
X91356099Y-77681406D01*
X91440000Y-77555839D01*
X91523901Y-77681406D01*
X91736594Y-77894099D01*
X91986694Y-78061210D01*
X92264590Y-78176319D01*
X92559604Y-78235000D01*
X92860396Y-78235000D01*
X93155410Y-78176319D01*
X93433306Y-78061210D01*
X93683406Y-77894099D01*
X93896099Y-77681406D01*
X93980000Y-77555839D01*
X94063901Y-77681406D01*
X94276594Y-77894099D01*
X94526694Y-78061210D01*
X94804590Y-78176319D01*
X95099604Y-78235000D01*
X95400396Y-78235000D01*
X95695410Y-78176319D01*
X95973306Y-78061210D01*
X96223406Y-77894099D01*
X96436099Y-77681406D01*
X96520000Y-77555839D01*
X96603901Y-77681406D01*
X96816594Y-77894099D01*
X97066694Y-78061210D01*
X97344590Y-78176319D01*
X97639604Y-78235000D01*
X97940396Y-78235000D01*
X98235410Y-78176319D01*
X98513306Y-78061210D01*
X98763406Y-77894099D01*
X98976099Y-77681406D01*
X99060000Y-77555839D01*
X99143901Y-77681406D01*
X99356594Y-77894099D01*
X99606694Y-78061210D01*
X99884590Y-78176319D01*
X100179604Y-78235000D01*
X100480396Y-78235000D01*
X100775410Y-78176319D01*
X101053306Y-78061210D01*
X101303406Y-77894099D01*
X101516099Y-77681406D01*
X101600000Y-77555839D01*
X101683901Y-77681406D01*
X101896594Y-77894099D01*
X102146694Y-78061210D01*
X102424590Y-78176319D01*
X102719604Y-78235000D01*
X103020396Y-78235000D01*
X103315410Y-78176319D01*
X103593306Y-78061210D01*
X103843406Y-77894099D01*
X104056099Y-77681406D01*
X104140000Y-77555839D01*
X104223901Y-77681406D01*
X104436594Y-77894099D01*
X104686694Y-78061210D01*
X104964590Y-78176319D01*
X105259604Y-78235000D01*
X105560396Y-78235000D01*
X105855410Y-78176319D01*
X106133306Y-78061210D01*
X106383406Y-77894099D01*
X106596099Y-77681406D01*
X106680000Y-77555839D01*
X106763901Y-77681406D01*
X106976594Y-77894099D01*
X107226694Y-78061210D01*
X107504590Y-78176319D01*
X107799604Y-78235000D01*
X108100396Y-78235000D01*
X108395410Y-78176319D01*
X108673306Y-78061210D01*
X108923406Y-77894099D01*
X109136099Y-77681406D01*
X109220000Y-77555839D01*
X109303901Y-77681406D01*
X109516594Y-77894099D01*
X109766694Y-78061210D01*
X110044590Y-78176319D01*
X110339604Y-78235000D01*
X110640396Y-78235000D01*
X110935410Y-78176319D01*
X111213306Y-78061210D01*
X111463406Y-77894099D01*
X111676099Y-77681406D01*
X111819677Y-77466525D01*
X111877615Y-77563131D01*
X112066586Y-77771519D01*
X112292580Y-77939037D01*
X112546913Y-78059246D01*
X112680961Y-78099904D01*
X112903000Y-77977915D01*
X112903000Y-76835000D01*
X112883000Y-76835000D01*
X112883000Y-76581000D01*
X112903000Y-76581000D01*
X112903000Y-76561000D01*
X113157000Y-76561000D01*
X113157000Y-76581000D01*
X113177000Y-76581000D01*
X113177000Y-76835000D01*
X113157000Y-76835000D01*
X113157000Y-77977915D01*
X113379039Y-78099904D01*
X113513087Y-78059246D01*
X113767420Y-77939037D01*
X113993414Y-77771519D01*
X114182385Y-77563131D01*
X114240323Y-77466525D01*
X114383901Y-77681406D01*
X114596594Y-77894099D01*
X114846694Y-78061210D01*
X115124590Y-78176319D01*
X115419604Y-78235000D01*
X115720396Y-78235000D01*
X116015410Y-78176319D01*
X116293306Y-78061210D01*
X116543406Y-77894099D01*
X116756099Y-77681406D01*
X116923210Y-77431306D01*
X117038319Y-77153410D01*
X117097000Y-76858396D01*
X117097000Y-76557604D01*
X117058621Y-76364658D01*
X118951797Y-76332185D01*
X124790454Y-82170843D01*
G36*
X66174961Y-67798262D02*
G01*
X66210251Y-67841263D01*
X66253252Y-67876553D01*
X66253255Y-67876556D01*
X66381859Y-67982098D01*
X66577645Y-68086748D01*
X66790085Y-68151191D01*
X66955651Y-68167498D01*
X66955659Y-68167498D01*
X67011016Y-68172950D01*
X67066373Y-68167498D01*
X71568455Y-68167498D01*
X71597245Y-72558030D01*
X71523590Y-72572681D01*
X71245694Y-72687790D01*
X70995594Y-72854901D01*
X70782901Y-73067594D01*
X70640695Y-73280421D01*
X70461702Y-73227903D01*
X69648605Y-74041000D01*
X70461702Y-74854097D01*
X70640695Y-74801579D01*
X70782901Y-75014406D01*
X70995594Y-75227099D01*
X71245694Y-75394210D01*
X71523590Y-75509319D01*
X71616719Y-75527843D01*
X71630393Y-77613000D01*
X70985278Y-77613000D01*
X70953410Y-77507943D01*
X70885903Y-77381647D01*
X70795054Y-77270946D01*
X70684353Y-77180097D01*
X70558057Y-77112590D01*
X70421017Y-77071020D01*
X70278500Y-77056983D01*
X68278500Y-77056983D01*
X68135983Y-77071020D01*
X67998943Y-77112590D01*
X67872647Y-77180097D01*
X67761946Y-77270946D01*
X67671097Y-77381647D01*
X67603590Y-77507943D01*
X67562020Y-77644983D01*
X67547983Y-77787500D01*
X67547983Y-79692500D01*
X67562020Y-79835017D01*
X67603590Y-79972057D01*
X67671097Y-80098353D01*
X67761946Y-80209054D01*
X67866686Y-80295011D01*
X67827790Y-80342405D01*
X67671837Y-80634173D01*
X67575801Y-80950761D01*
X67543374Y-81280000D01*
X67575801Y-81609239D01*
X67671837Y-81925827D01*
X67827790Y-82217595D01*
X68037668Y-82473332D01*
X68131088Y-82550000D01*
X68037668Y-82626668D01*
X67827790Y-82882405D01*
X67671837Y-83174173D01*
X67575801Y-83490761D01*
X67543374Y-83820000D01*
X67575801Y-84149239D01*
X67671837Y-84465827D01*
X67827790Y-84757595D01*
X68037668Y-85013332D01*
X68293405Y-85223210D01*
X68585173Y-85379163D01*
X68901761Y-85475199D01*
X69148495Y-85499500D01*
X69408505Y-85499500D01*
X69655239Y-85475199D01*
X69971827Y-85379163D01*
X70263595Y-85223210D01*
X70519332Y-85013332D01*
X70729210Y-84757595D01*
X70885163Y-84465827D01*
X70981199Y-84149239D01*
X71013626Y-83820000D01*
X70981199Y-83490761D01*
X70885163Y-83174173D01*
X70729210Y-82882405D01*
X70519332Y-82626668D01*
X70425912Y-82550000D01*
X70519332Y-82473332D01*
X70729210Y-82217595D01*
X70880058Y-81935377D01*
X71663876Y-82719195D01*
X71690665Y-86804500D01*
X57339670Y-86804500D01*
X57299900Y-80739500D01*
X60113580Y-80739500D01*
X60139201Y-80999637D01*
X60215081Y-81249778D01*
X60338302Y-81480308D01*
X60504130Y-81682370D01*
X60706192Y-81848198D01*
X60936722Y-81971419D01*
X61186863Y-82047299D01*
X61381816Y-82066500D01*
X62062184Y-82066500D01*
X62257137Y-82047299D01*
X62507278Y-81971419D01*
X62737808Y-81848198D01*
X62939870Y-81682370D01*
X63105698Y-81480308D01*
X63228919Y-81249778D01*
X63304799Y-80999637D01*
X63330420Y-80739500D01*
X63304799Y-80479363D01*
X63228919Y-80229222D01*
X63105698Y-79998692D01*
X62939870Y-79796630D01*
X62801417Y-79683005D01*
X62960078Y-79522974D01*
X63094421Y-79320033D01*
X63186591Y-79094782D01*
X63190462Y-79057109D01*
X63065731Y-78866500D01*
X61849000Y-78866500D01*
X61849000Y-78886500D01*
X61595000Y-78886500D01*
X61595000Y-78866500D01*
X60378269Y-78866500D01*
X60253538Y-79057109D01*
X60257409Y-79094782D01*
X60349579Y-79320033D01*
X60483922Y-79522974D01*
X60642583Y-79683005D01*
X60504130Y-79796630D01*
X60338302Y-79998692D01*
X60215081Y-80229222D01*
X60139201Y-80479363D01*
X60113580Y-80739500D01*
X57299900Y-80739500D01*
X57273671Y-76739500D01*
X60113580Y-76739500D01*
X60139201Y-76999637D01*
X60215081Y-77249778D01*
X60338302Y-77480308D01*
X60504130Y-77682370D01*
X60642583Y-77795995D01*
X60483922Y-77956026D01*
X60349579Y-78158967D01*
X60257409Y-78384218D01*
X60253538Y-78421891D01*
X60378269Y-78612500D01*
X61595000Y-78612500D01*
X61595000Y-78592500D01*
X61849000Y-78592500D01*
X61849000Y-78612500D01*
X63065731Y-78612500D01*
X63190462Y-78421891D01*
X63186591Y-78384218D01*
X63094421Y-78158967D01*
X62960078Y-77956026D01*
X62801417Y-77795995D01*
X62939870Y-77682370D01*
X63105698Y-77480308D01*
X63228919Y-77249778D01*
X63304799Y-76999637D01*
X63330420Y-76739500D01*
X63304799Y-76479363D01*
X63228919Y-76229222D01*
X63105698Y-75998692D01*
X62980546Y-75846194D01*
X63048185Y-75790685D01*
X63127537Y-75693994D01*
X63186502Y-75583680D01*
X63222812Y-75463982D01*
X63235072Y-75339500D01*
X63232083Y-75033702D01*
X68655903Y-75033702D01*
X68727486Y-75277671D01*
X68982996Y-75398571D01*
X69257184Y-75467300D01*
X69539512Y-75481217D01*
X69819130Y-75439787D01*
X70085292Y-75344603D01*
X70210514Y-75277671D01*
X70282097Y-75033702D01*
X69469000Y-74220605D01*
X68655903Y-75033702D01*
X63232083Y-75033702D01*
X63232000Y-75025250D01*
X63073250Y-74866500D01*
X61849000Y-74866500D01*
X61849000Y-74886500D01*
X61595000Y-74886500D01*
X61595000Y-74866500D01*
X60370750Y-74866500D01*
X60212000Y-75025250D01*
X60208928Y-75339500D01*
X60221188Y-75463982D01*
X60257498Y-75583680D01*
X60316463Y-75693994D01*
X60395815Y-75790685D01*
X60463454Y-75846194D01*
X60338302Y-75998692D01*
X60215081Y-76229222D01*
X60139201Y-76479363D01*
X60113580Y-76739500D01*
X57273671Y-76739500D01*
X57256622Y-74139500D01*
X60208928Y-74139500D01*
X60212000Y-74453750D01*
X60370750Y-74612500D01*
X61595000Y-74612500D01*
X61595000Y-73663250D01*
X61849000Y-73663250D01*
X61849000Y-74612500D01*
X63073250Y-74612500D01*
X63232000Y-74453750D01*
X63235072Y-74139500D01*
X63232316Y-74111512D01*
X68028783Y-74111512D01*
X68070213Y-74391130D01*
X68165397Y-74657292D01*
X68232329Y-74782514D01*
X68476298Y-74854097D01*
X69289395Y-74041000D01*
X68476298Y-73227903D01*
X68232329Y-73299486D01*
X68111429Y-73554996D01*
X68042700Y-73829184D01*
X68028783Y-74111512D01*
X63232316Y-74111512D01*
X63222812Y-74015018D01*
X63186502Y-73895320D01*
X63127537Y-73785006D01*
X63048185Y-73688315D01*
X62951494Y-73608963D01*
X62841180Y-73549998D01*
X62721482Y-73513688D01*
X62597000Y-73501428D01*
X62007750Y-73504500D01*
X61849000Y-73663250D01*
X61595000Y-73663250D01*
X61436250Y-73504500D01*
X60847000Y-73501428D01*
X60722518Y-73513688D01*
X60602820Y-73549998D01*
X60492506Y-73608963D01*
X60395815Y-73688315D01*
X60316463Y-73785006D01*
X60257498Y-73895320D01*
X60221188Y-74015018D01*
X60208928Y-74139500D01*
X57256622Y-74139500D01*
X57249467Y-73048298D01*
X68655903Y-73048298D01*
X69469000Y-73861395D01*
X70282097Y-73048298D01*
X70210514Y-72804329D01*
X69955004Y-72683429D01*
X69680816Y-72614700D01*
X69398488Y-72600783D01*
X69118870Y-72642213D01*
X68852708Y-72737397D01*
X68727486Y-72804329D01*
X68655903Y-73048298D01*
X57249467Y-73048298D01*
X57214335Y-67691000D01*
X66067699Y-67691000D01*
X66174961Y-67798262D01*
G37*
X66174961Y-67798262D02*
X66210251Y-67841263D01*
X66253252Y-67876553D01*
X66253255Y-67876556D01*
X66381859Y-67982098D01*
X66577645Y-68086748D01*
X66790085Y-68151191D01*
X66955651Y-68167498D01*
X66955659Y-68167498D01*
X67011016Y-68172950D01*
X67066373Y-68167498D01*
X71568455Y-68167498D01*
X71597245Y-72558030D01*
X71523590Y-72572681D01*
X71245694Y-72687790D01*
X70995594Y-72854901D01*
X70782901Y-73067594D01*
X70640695Y-73280421D01*
X70461702Y-73227903D01*
X69648605Y-74041000D01*
X70461702Y-74854097D01*
X70640695Y-74801579D01*
X70782901Y-75014406D01*
X70995594Y-75227099D01*
X71245694Y-75394210D01*
X71523590Y-75509319D01*
X71616719Y-75527843D01*
X71630393Y-77613000D01*
X70985278Y-77613000D01*
X70953410Y-77507943D01*
X70885903Y-77381647D01*
X70795054Y-77270946D01*
X70684353Y-77180097D01*
X70558057Y-77112590D01*
X70421017Y-77071020D01*
X70278500Y-77056983D01*
X68278500Y-77056983D01*
X68135983Y-77071020D01*
X67998943Y-77112590D01*
X67872647Y-77180097D01*
X67761946Y-77270946D01*
X67671097Y-77381647D01*
X67603590Y-77507943D01*
X67562020Y-77644983D01*
X67547983Y-77787500D01*
X67547983Y-79692500D01*
X67562020Y-79835017D01*
X67603590Y-79972057D01*
X67671097Y-80098353D01*
X67761946Y-80209054D01*
X67866686Y-80295011D01*
X67827790Y-80342405D01*
X67671837Y-80634173D01*
X67575801Y-80950761D01*
X67543374Y-81280000D01*
X67575801Y-81609239D01*
X67671837Y-81925827D01*
X67827790Y-82217595D01*
X68037668Y-82473332D01*
X68131088Y-82550000D01*
X68037668Y-82626668D01*
X67827790Y-82882405D01*
X67671837Y-83174173D01*
X67575801Y-83490761D01*
X67543374Y-83820000D01*
X67575801Y-84149239D01*
X67671837Y-84465827D01*
X67827790Y-84757595D01*
X68037668Y-85013332D01*
X68293405Y-85223210D01*
X68585173Y-85379163D01*
X68901761Y-85475199D01*
X69148495Y-85499500D01*
X69408505Y-85499500D01*
X69655239Y-85475199D01*
X69971827Y-85379163D01*
X70263595Y-85223210D01*
X70519332Y-85013332D01*
X70729210Y-84757595D01*
X70885163Y-84465827D01*
X70981199Y-84149239D01*
X71013626Y-83820000D01*
X70981199Y-83490761D01*
X70885163Y-83174173D01*
X70729210Y-82882405D01*
X70519332Y-82626668D01*
X70425912Y-82550000D01*
X70519332Y-82473332D01*
X70729210Y-82217595D01*
X70880058Y-81935377D01*
X71663876Y-82719195D01*
X71690665Y-86804500D01*
X57339670Y-86804500D01*
X57299900Y-80739500D01*
X60113580Y-80739500D01*
X60139201Y-80999637D01*
X60215081Y-81249778D01*
X60338302Y-81480308D01*
X60504130Y-81682370D01*
X60706192Y-81848198D01*
X60936722Y-81971419D01*
X61186863Y-82047299D01*
X61381816Y-82066500D01*
X62062184Y-82066500D01*
X62257137Y-82047299D01*
X62507278Y-81971419D01*
X62737808Y-81848198D01*
X62939870Y-81682370D01*
X63105698Y-81480308D01*
X63228919Y-81249778D01*
X63304799Y-80999637D01*
X63330420Y-80739500D01*
X63304799Y-80479363D01*
X63228919Y-80229222D01*
X63105698Y-79998692D01*
X62939870Y-79796630D01*
X62801417Y-79683005D01*
X62960078Y-79522974D01*
X63094421Y-79320033D01*
X63186591Y-79094782D01*
X63190462Y-79057109D01*
X63065731Y-78866500D01*
X61849000Y-78866500D01*
X61849000Y-78886500D01*
X61595000Y-78886500D01*
X61595000Y-78866500D01*
X60378269Y-78866500D01*
X60253538Y-79057109D01*
X60257409Y-79094782D01*
X60349579Y-79320033D01*
X60483922Y-79522974D01*
X60642583Y-79683005D01*
X60504130Y-79796630D01*
X60338302Y-79998692D01*
X60215081Y-80229222D01*
X60139201Y-80479363D01*
X60113580Y-80739500D01*
X57299900Y-80739500D01*
X57273671Y-76739500D01*
X60113580Y-76739500D01*
X60139201Y-76999637D01*
X60215081Y-77249778D01*
X60338302Y-77480308D01*
X60504130Y-77682370D01*
X60642583Y-77795995D01*
X60483922Y-77956026D01*
X60349579Y-78158967D01*
X60257409Y-78384218D01*
X60253538Y-78421891D01*
X60378269Y-78612500D01*
X61595000Y-78612500D01*
X61595000Y-78592500D01*
X61849000Y-78592500D01*
X61849000Y-78612500D01*
X63065731Y-78612500D01*
X63190462Y-78421891D01*
X63186591Y-78384218D01*
X63094421Y-78158967D01*
X62960078Y-77956026D01*
X62801417Y-77795995D01*
X62939870Y-77682370D01*
X63105698Y-77480308D01*
X63228919Y-77249778D01*
X63304799Y-76999637D01*
X63330420Y-76739500D01*
X63304799Y-76479363D01*
X63228919Y-76229222D01*
X63105698Y-75998692D01*
X62980546Y-75846194D01*
X63048185Y-75790685D01*
X63127537Y-75693994D01*
X63186502Y-75583680D01*
X63222812Y-75463982D01*
X63235072Y-75339500D01*
X63232083Y-75033702D01*
X68655903Y-75033702D01*
X68727486Y-75277671D01*
X68982996Y-75398571D01*
X69257184Y-75467300D01*
X69539512Y-75481217D01*
X69819130Y-75439787D01*
X70085292Y-75344603D01*
X70210514Y-75277671D01*
X70282097Y-75033702D01*
X69469000Y-74220605D01*
X68655903Y-75033702D01*
X63232083Y-75033702D01*
X63232000Y-75025250D01*
X63073250Y-74866500D01*
X61849000Y-74866500D01*
X61849000Y-74886500D01*
X61595000Y-74886500D01*
X61595000Y-74866500D01*
X60370750Y-74866500D01*
X60212000Y-75025250D01*
X60208928Y-75339500D01*
X60221188Y-75463982D01*
X60257498Y-75583680D01*
X60316463Y-75693994D01*
X60395815Y-75790685D01*
X60463454Y-75846194D01*
X60338302Y-75998692D01*
X60215081Y-76229222D01*
X60139201Y-76479363D01*
X60113580Y-76739500D01*
X57273671Y-76739500D01*
X57256622Y-74139500D01*
X60208928Y-74139500D01*
X60212000Y-74453750D01*
X60370750Y-74612500D01*
X61595000Y-74612500D01*
X61595000Y-73663250D01*
X61849000Y-73663250D01*
X61849000Y-74612500D01*
X63073250Y-74612500D01*
X63232000Y-74453750D01*
X63235072Y-74139500D01*
X63232316Y-74111512D01*
X68028783Y-74111512D01*
X68070213Y-74391130D01*
X68165397Y-74657292D01*
X68232329Y-74782514D01*
X68476298Y-74854097D01*
X69289395Y-74041000D01*
X68476298Y-73227903D01*
X68232329Y-73299486D01*
X68111429Y-73554996D01*
X68042700Y-73829184D01*
X68028783Y-74111512D01*
X63232316Y-74111512D01*
X63222812Y-74015018D01*
X63186502Y-73895320D01*
X63127537Y-73785006D01*
X63048185Y-73688315D01*
X62951494Y-73608963D01*
X62841180Y-73549998D01*
X62721482Y-73513688D01*
X62597000Y-73501428D01*
X62007750Y-73504500D01*
X61849000Y-73663250D01*
X61595000Y-73663250D01*
X61436250Y-73504500D01*
X60847000Y-73501428D01*
X60722518Y-73513688D01*
X60602820Y-73549998D01*
X60492506Y-73608963D01*
X60395815Y-73688315D01*
X60316463Y-73785006D01*
X60257498Y-73895320D01*
X60221188Y-74015018D01*
X60208928Y-74139500D01*
X57256622Y-74139500D01*
X57249467Y-73048298D01*
X68655903Y-73048298D01*
X69469000Y-73861395D01*
X70282097Y-73048298D01*
X70210514Y-72804329D01*
X69955004Y-72683429D01*
X69680816Y-72614700D01*
X69398488Y-72600783D01*
X69118870Y-72642213D01*
X68852708Y-72737397D01*
X68727486Y-72804329D01*
X68655903Y-73048298D01*
X57249467Y-73048298D01*
X57214335Y-67691000D01*
X66067699Y-67691000D01*
X66174961Y-67798262D01*
M02*
