G04 #@! TF.GenerationSoftware,KiCad,Pcbnew,(5.1.6)-1*
G04 #@! TF.CreationDate,2021-04-18T21:34:56+02:00*
G04 #@! TF.ProjectId,eduRov_motherboard,65647552-6f76-45f6-9d6f-74686572626f,rev?*
G04 #@! TF.SameCoordinates,Original*
G04 #@! TF.FileFunction,Soldermask,Bot*
G04 #@! TF.FilePolarity,Negative*
%FSLAX46Y46*%
G04 Gerber Fmt 4.6, Leading zero omitted, Abs format (unit mm)*
G04 Created by KiCad (PCBNEW (5.1.6)-1) date 2021-04-18 21:34:56*
%MOMM*%
%LPD*%
G01*
G04 APERTURE LIST*
%ADD10R,1.270000X1.680000*%
%ADD11O,1.700000X1.700000*%
%ADD12R,1.700000X1.700000*%
%ADD13C,6.000000*%
%ADD14O,1.750000X1.200000*%
%ADD15O,2.000000X1.905000*%
%ADD16R,2.000000X1.905000*%
%ADD17C,3.000000*%
%ADD18R,3.000000X3.000000*%
%ADD19O,1.800000X3.600000*%
%ADD20O,1.600000X1.600000*%
%ADD21C,1.600000*%
%ADD22O,1.400000X1.400000*%
%ADD23C,1.400000*%
%ADD24C,2.400000*%
%ADD25R,2.400000X2.400000*%
%ADD26O,2.200000X2.200000*%
%ADD27R,2.200000X2.200000*%
%ADD28C,0.100000*%
%ADD29R,1.600000X1.600000*%
G04 APERTURE END LIST*
D10*
X82550000Y-104574000D03*
X92710000Y-104574000D03*
X107950000Y-104574000D03*
X80010000Y-104574000D03*
X100330000Y-104574000D03*
X105410000Y-104574000D03*
X113030000Y-104574000D03*
X115570000Y-104574000D03*
X118110000Y-104574000D03*
X90170000Y-104574000D03*
X110490000Y-104574000D03*
X120650000Y-104574000D03*
X123190000Y-104574000D03*
X125730000Y-104574000D03*
X128270000Y-104574000D03*
X87630000Y-104574000D03*
X95250000Y-104574000D03*
X97790000Y-104574000D03*
X85090000Y-104574000D03*
X102870000Y-104574000D03*
X102870000Y-99134000D03*
X105410000Y-99134000D03*
X115570000Y-99134000D03*
X120650000Y-99134000D03*
X97790000Y-99134000D03*
X128270000Y-99134000D03*
X87630000Y-99134000D03*
X107950000Y-99134000D03*
X125730000Y-99134000D03*
X85090000Y-99134000D03*
X110490000Y-99134000D03*
X118110000Y-99134000D03*
X92710000Y-99134000D03*
X80010000Y-99134000D03*
X100330000Y-99134000D03*
X95250000Y-99134000D03*
X123190000Y-99134000D03*
X113030000Y-99134000D03*
X90170000Y-99134000D03*
X82550000Y-99134000D03*
D11*
X105410000Y-103124000D03*
X115570000Y-103124000D03*
X107950000Y-103124000D03*
X125730000Y-100584000D03*
D12*
X80010000Y-100584000D03*
D11*
X118110000Y-100584000D03*
X128270000Y-100584000D03*
X100330000Y-103124000D03*
X120650000Y-100584000D03*
X85090000Y-100584000D03*
X120650000Y-103124000D03*
X82550000Y-103124000D03*
X82550000Y-100584000D03*
X95250000Y-103124000D03*
D13*
X133140000Y-101854000D03*
D11*
X102870000Y-103124000D03*
X123190000Y-100584000D03*
X110490000Y-103124000D03*
X107950000Y-100584000D03*
X110490000Y-100584000D03*
X102870000Y-100584000D03*
X97790000Y-100584000D03*
X87630000Y-103124000D03*
X92710000Y-103124000D03*
D13*
X75140000Y-150854000D03*
D11*
X128270000Y-103124000D03*
D13*
X75140000Y-101854000D03*
D11*
X87630000Y-100584000D03*
X90170000Y-100584000D03*
X123190000Y-103124000D03*
X97790000Y-103124000D03*
X85090000Y-103124000D03*
X113030000Y-103124000D03*
X125730000Y-103124000D03*
X95250000Y-100584000D03*
X113030000Y-100584000D03*
X80010000Y-103124000D03*
X100330000Y-100584000D03*
X92710000Y-100584000D03*
D13*
X133140000Y-150854000D03*
D11*
X118110000Y-103124000D03*
X90170000Y-103124000D03*
X115570000Y-100584000D03*
X105410000Y-100584000D03*
D14*
X61722000Y-80739500D03*
X61722000Y-78739500D03*
X61722000Y-76739500D03*
G36*
G01*
X61096999Y-74139500D02*
X62347001Y-74139500D01*
G75*
G02*
X62597000Y-74389499I0J-249999D01*
G01*
X62597000Y-75089501D01*
G75*
G02*
X62347001Y-75339500I-249999J0D01*
G01*
X61096999Y-75339500D01*
G75*
G02*
X60847000Y-75089501I0J249999D01*
G01*
X60847000Y-74389499D01*
G75*
G02*
X61096999Y-74139500I249999J0D01*
G01*
G37*
D15*
X69278500Y-83820000D03*
X69278500Y-81280000D03*
D16*
X69278500Y-78740000D03*
D17*
X197802500Y-41418500D03*
D18*
X197802500Y-46418500D03*
D17*
X159766000Y-41418500D03*
D18*
X159766000Y-46418500D03*
D17*
X121920000Y-41418500D03*
D18*
X121920000Y-46418500D03*
D17*
X83820000Y-41418500D03*
D18*
X83820000Y-46418500D03*
D14*
X174244000Y-145128500D03*
X174244000Y-143128500D03*
X174244000Y-141128500D03*
G36*
G01*
X173618999Y-138528500D02*
X174869001Y-138528500D01*
G75*
G02*
X175119000Y-138778499I0J-249999D01*
G01*
X175119000Y-139478501D01*
G75*
G02*
X174869001Y-139728500I-249999J0D01*
G01*
X173618999Y-139728500D01*
G75*
G02*
X173369000Y-139478501I0J249999D01*
G01*
X173369000Y-138778499D01*
G75*
G02*
X173618999Y-138528500I249999J0D01*
G01*
G37*
X174244000Y-124555000D03*
X174244000Y-122555000D03*
G36*
G01*
X173618999Y-119955000D02*
X174869001Y-119955000D01*
G75*
G02*
X175119000Y-120204999I0J-249999D01*
G01*
X175119000Y-120905001D01*
G75*
G02*
X174869001Y-121155000I-249999J0D01*
G01*
X173618999Y-121155000D01*
G75*
G02*
X173369000Y-120905001I0J249999D01*
G01*
X173369000Y-120204999D01*
G75*
G02*
X173618999Y-119955000I249999J0D01*
G01*
G37*
X174180500Y-109410000D03*
X174180500Y-107410000D03*
G36*
G01*
X173555499Y-104810000D02*
X174805501Y-104810000D01*
G75*
G02*
X175055500Y-105059999I0J-249999D01*
G01*
X175055500Y-105760001D01*
G75*
G02*
X174805501Y-106010000I-249999J0D01*
G01*
X173555499Y-106010000D01*
G75*
G02*
X173305500Y-105760001I0J249999D01*
G01*
X173305500Y-105059999D01*
G75*
G02*
X173555499Y-104810000I249999J0D01*
G01*
G37*
D19*
X74558000Y-57150000D03*
X76258000Y-62230000D03*
X77958000Y-57150000D03*
X79658000Y-62230000D03*
X81358000Y-57150000D03*
X83058000Y-62230000D03*
X84758000Y-57150000D03*
X86458000Y-62230000D03*
X88158000Y-57150000D03*
X89858000Y-62230000D03*
X91558000Y-57150000D03*
X112580000Y-57150000D03*
X114280000Y-62230000D03*
X115980000Y-57150000D03*
X117680000Y-62230000D03*
X119380000Y-57150000D03*
X121080000Y-62230000D03*
X122780000Y-57150000D03*
X124480000Y-62230000D03*
X126180000Y-57150000D03*
X127880000Y-62230000D03*
X129580000Y-57150000D03*
X150504000Y-57150000D03*
X152204000Y-62230000D03*
X153904000Y-57150000D03*
X155604000Y-62230000D03*
X157304000Y-57150000D03*
X159004000Y-62230000D03*
X160704000Y-57150000D03*
X162404000Y-62230000D03*
X164104000Y-57150000D03*
X165804000Y-62230000D03*
X167504000Y-57150000D03*
X188604000Y-57150000D03*
X190304000Y-62230000D03*
X192004000Y-57150000D03*
X193704000Y-62230000D03*
X195404000Y-57150000D03*
X197104000Y-62230000D03*
X198804000Y-57150000D03*
X200504000Y-62230000D03*
X202204000Y-57150000D03*
X203904000Y-62230000D03*
X205604000Y-57150000D03*
D20*
X73596500Y-89154000D03*
D21*
X63436500Y-89154000D03*
D20*
X134429500Y-74930000D03*
D21*
X134429500Y-85090000D03*
D20*
X137477500Y-85090000D03*
D21*
X137477500Y-74930000D03*
D20*
X140525500Y-74930000D03*
D21*
X140525500Y-85090000D03*
D20*
X143573500Y-85090000D03*
D21*
X143573500Y-74930000D03*
D20*
X73533000Y-92265500D03*
D21*
X63373000Y-92265500D03*
D20*
X65278000Y-96266000D03*
D21*
X65278000Y-106426000D03*
D20*
X68326000Y-106426000D03*
D21*
X68326000Y-96266000D03*
D20*
X59182000Y-96266000D03*
D21*
X59182000Y-106426000D03*
D20*
X62230000Y-106426000D03*
D21*
X62230000Y-96266000D03*
D22*
X71247000Y-64262000D03*
D23*
X71247000Y-62362000D03*
D22*
X108458000Y-64892000D03*
D23*
X108458000Y-62992000D03*
D22*
X146215100Y-64401780D03*
D23*
X146215100Y-62501780D03*
D22*
X184404000Y-63622000D03*
D23*
X184404000Y-61722000D03*
D21*
X59944000Y-64730000D03*
X59944000Y-62230000D03*
X95758000Y-64770000D03*
X95758000Y-62270000D03*
X134477760Y-64569340D03*
X134477760Y-62069340D03*
X171958000Y-64770000D03*
X171958000Y-62270000D03*
X71969000Y-74041000D03*
X69469000Y-74041000D03*
X95504000Y-58189500D03*
X95504000Y-55689500D03*
X133159500Y-58189500D03*
X133159500Y-55689500D03*
X171005500Y-58189500D03*
X171005500Y-55689500D03*
X209359500Y-61698500D03*
X209359500Y-64198500D03*
D24*
X214804000Y-76708000D03*
D25*
X209804000Y-76708000D03*
D26*
X75311000Y-43878500D03*
D27*
X75311000Y-40068500D03*
G36*
G01*
X73013740Y-49985760D02*
X73013740Y-49985760D01*
G75*
G02*
X73013740Y-51541394I-777817J-777817D01*
G01*
X73013740Y-51541394D01*
G75*
G02*
X71458106Y-51541394I-777817J777817D01*
G01*
X71458106Y-51541394D01*
G75*
G02*
X71458106Y-49985760I777817J777817D01*
G01*
X71458106Y-49985760D01*
G75*
G02*
X73013740Y-49985760I777817J-777817D01*
G01*
G37*
D28*
G36*
X74930000Y-46513865D02*
G01*
X76485635Y-48069500D01*
X74930000Y-49625135D01*
X73374365Y-48069500D01*
X74930000Y-46513865D01*
G37*
D26*
X109474000Y-45339000D03*
D27*
X113284000Y-45339000D03*
D26*
X109537500Y-49022000D03*
D27*
X113347500Y-49022000D03*
D26*
X147574000Y-45466000D03*
D27*
X151384000Y-45466000D03*
D26*
X147574000Y-49149000D03*
D27*
X151384000Y-49149000D03*
D26*
X185674000Y-45593000D03*
D27*
X189484000Y-45593000D03*
D26*
X185674000Y-49276000D03*
D27*
X189484000Y-49276000D03*
D21*
X88178000Y-52832000D03*
X90678000Y-52832000D03*
X81574000Y-52832000D03*
X84074000Y-52832000D03*
X75351000Y-52959000D03*
X77851000Y-52959000D03*
X126024000Y-52832000D03*
X128524000Y-52832000D03*
X119674000Y-52832000D03*
X122174000Y-52832000D03*
X113514500Y-52895500D03*
X116014500Y-52895500D03*
X164124000Y-52832000D03*
X166624000Y-52832000D03*
X157520000Y-52832000D03*
X160020000Y-52832000D03*
X151551000Y-52832000D03*
X154051000Y-52832000D03*
X202160500Y-52832000D03*
X204660500Y-52832000D03*
X195580000Y-52832000D03*
X198080000Y-52832000D03*
X189397000Y-52705000D03*
X191897000Y-52705000D03*
D20*
X115570000Y-76708000D03*
X115570000Y-91948000D03*
X80010000Y-76708000D03*
X113030000Y-91948000D03*
X82550000Y-76708000D03*
X110490000Y-91948000D03*
X85090000Y-76708000D03*
X107950000Y-91948000D03*
X87630000Y-76708000D03*
X105410000Y-91948000D03*
X90170000Y-76708000D03*
X102870000Y-91948000D03*
X92710000Y-76708000D03*
X100330000Y-91948000D03*
X95250000Y-76708000D03*
X97790000Y-91948000D03*
X97790000Y-76708000D03*
X95250000Y-91948000D03*
X100330000Y-76708000D03*
X92710000Y-91948000D03*
X102870000Y-76708000D03*
X90170000Y-91948000D03*
X105410000Y-76708000D03*
X87630000Y-91948000D03*
X107950000Y-76708000D03*
X85090000Y-91948000D03*
X110490000Y-76708000D03*
X82550000Y-91948000D03*
X113030000Y-76708000D03*
D29*
X80010000Y-91948000D03*
D17*
X194796400Y-80479900D03*
D18*
X199796400Y-80479900D03*
D11*
X178511200Y-77152500D03*
X181051200Y-77152500D03*
X183591200Y-77152500D03*
D12*
X186131200Y-77152500D03*
M02*
