M48
; DRILL file {KiCad (5.1.6)-1} date 04/18/21 21:35:18
; FORMAT={-:-/ absolute / metric / decimal}
; #@! TF.CreationDate,2021-04-18T21:35:18+02:00
; #@! TF.GenerationSoftware,Kicad,Pcbnew,(5.1.6)-1
; #@! TF.FileFunction,Plated,1,4,PTH
FMAT,2
METRIC
T1C0.700
T2C0.750
T3C0.800
T4C1.000
T5C1.100
T6C1.200
T7C1.500
T8C2.700
%
G90
G05
T1
X108.458Y-62.992
X108.458Y-64.892
X146.215Y-62.502
X146.215Y-64.402
X71.247Y-62.362
X71.247Y-64.262
X184.404Y-61.722
X184.404Y-63.622
T2
X61.722Y-74.739
X61.722Y-76.739
X61.722Y-78.739
X61.722Y-80.739
X174.18Y-105.41
X174.18Y-107.41
X174.18Y-109.41
X174.244Y-139.129
X174.244Y-141.129
X174.244Y-143.129
X174.244Y-145.129
X174.244Y-120.555
X174.244Y-122.555
X174.244Y-124.555
T3
X67.74Y-68.34
X69.532Y-68.389
X95.758Y-62.27
X95.758Y-64.77
X69.469Y-74.041
X71.969Y-74.041
X171.958Y-62.27
X171.958Y-64.77
X202.16Y-52.832
X204.66Y-52.832
X65.278Y-96.266
X65.278Y-106.426
X119.674Y-52.832
X122.174Y-52.832
X59.944Y-62.23
X59.944Y-64.73
X63.436Y-89.154
X73.596Y-89.154
X171.005Y-55.689
X171.005Y-58.189
X151.551Y-52.832
X154.051Y-52.832
X63.373Y-92.265
X73.533Y-92.265
X113.514Y-52.895
X116.014Y-52.895
X59.182Y-96.266
X59.182Y-106.426
X157.52Y-52.832
X160.02Y-52.832
X62.23Y-96.266
X62.23Y-106.426
X164.124Y-52.832
X166.624Y-52.832
X134.429Y-74.93
X134.429Y-85.09
X137.477Y-74.93
X137.477Y-85.09
X189.397Y-52.705
X191.897Y-52.705
X126.024Y-52.832
X128.524Y-52.832
X95.504Y-55.689
X95.504Y-58.189
X143.573Y-74.93
X143.573Y-85.09
X88.178Y-52.832
X90.678Y-52.832
X209.359Y-61.698
X209.359Y-64.198
X195.58Y-52.832
X198.08Y-52.832
X81.574Y-52.832
X84.074Y-52.832
X133.159Y-55.689
X133.159Y-58.189
X134.478Y-62.069
X134.478Y-64.569
X75.351Y-52.959
X77.851Y-52.959
X68.326Y-96.266
X68.326Y-106.426
X140.525Y-74.93
X140.525Y-85.09
T4
X178.511Y-77.153
X181.051Y-77.153
X183.591Y-77.153
X186.131Y-77.153
X80.01Y-76.708
X80.01Y-91.948
X82.55Y-76.708
X82.55Y-91.948
X85.09Y-76.708
X85.09Y-91.948
X87.63Y-76.708
X87.63Y-91.948
X90.17Y-76.708
X90.17Y-91.948
X92.71Y-76.708
X92.71Y-91.948
X95.25Y-76.708
X95.25Y-91.948
X97.79Y-76.708
X97.79Y-91.948
X100.33Y-76.708
X100.33Y-91.948
X102.87Y-76.708
X102.87Y-91.948
X105.41Y-76.708
X105.41Y-91.948
X107.95Y-76.708
X107.95Y-91.948
X110.49Y-76.708
X110.49Y-91.948
X113.03Y-76.708
X113.03Y-91.948
X115.57Y-76.708
X115.57Y-91.948
X80.01Y-100.584
X80.01Y-103.124
X82.55Y-100.584
X82.55Y-103.124
X85.09Y-100.584
X85.09Y-103.124
X87.63Y-100.584
X87.63Y-103.124
X90.17Y-100.584
X90.17Y-103.124
X92.71Y-100.584
X92.71Y-103.124
X95.25Y-100.584
X95.25Y-103.124
X97.79Y-100.584
X97.79Y-103.124
X100.33Y-100.584
X100.33Y-103.124
X102.87Y-100.584
X102.87Y-103.124
X105.41Y-100.584
X105.41Y-103.124
X107.95Y-100.584
X107.95Y-103.124
X110.49Y-100.584
X110.49Y-103.124
X113.03Y-100.584
X113.03Y-103.124
X115.57Y-100.584
X115.57Y-103.124
X118.11Y-100.584
X118.11Y-103.124
X120.65Y-100.584
X120.65Y-103.124
X123.19Y-100.584
X123.19Y-103.124
X125.73Y-100.584
X125.73Y-103.124
X128.27Y-100.584
X128.27Y-103.124
T5
X185.674Y-45.593
X189.484Y-45.593
X109.474Y-45.339
X113.284Y-45.339
X75.311Y-40.069
X75.311Y-43.878
X69.278Y-78.74
X69.278Y-81.28
X69.278Y-83.82
X147.574Y-45.466
X151.384Y-45.466
X72.236Y-50.764
X74.93Y-48.069
X185.674Y-49.276
X189.484Y-49.276
X147.574Y-49.149
X151.384Y-49.149
X109.537Y-49.022
X113.347Y-49.022
T6
X209.804Y-76.708
X214.804Y-76.708
X74.558Y-57.15
X76.258Y-62.23
X77.958Y-57.15
X79.658Y-62.23
X81.358Y-57.15
X83.058Y-62.23
X84.758Y-57.15
X86.458Y-62.23
X88.158Y-57.15
X89.858Y-62.23
X91.558Y-57.15
X112.58Y-57.15
X114.28Y-62.23
X115.98Y-57.15
X117.68Y-62.23
X119.38Y-57.15
X121.08Y-62.23
X122.78Y-57.15
X124.48Y-62.23
X126.18Y-57.15
X127.88Y-62.23
X129.58Y-57.15
X150.504Y-57.15
X152.204Y-62.23
X153.904Y-57.15
X155.604Y-62.23
X157.304Y-57.15
X159.004Y-62.23
X160.704Y-57.15
X162.404Y-62.23
X164.104Y-57.15
X165.804Y-62.23
X167.504Y-57.15
X188.604Y-57.15
X190.304Y-62.23
X192.004Y-57.15
X193.704Y-62.23
X195.404Y-57.15
X197.104Y-62.23
X198.804Y-57.15
X200.504Y-62.23
X202.204Y-57.15
X203.904Y-62.23
X205.604Y-57.15
T7
X159.766Y-41.419
X159.766Y-46.418
X194.796Y-80.48
X199.796Y-80.48
X83.82Y-41.419
X83.82Y-46.418
X197.802Y-41.419
X197.802Y-46.418
X121.92Y-41.419
X121.92Y-46.418
T8
X75.14Y-101.854
X75.14Y-150.854
X133.14Y-101.854
X133.14Y-150.854
T0
M30
