G04 #@! TF.GenerationSoftware,KiCad,Pcbnew,(5.1.6)-1*
G04 #@! TF.CreationDate,2021-04-18T21:34:56+02:00*
G04 #@! TF.ProjectId,eduRov_motherboard,65647552-6f76-45f6-9d6f-74686572626f,rev?*
G04 #@! TF.SameCoordinates,Original*
G04 #@! TF.FileFunction,Legend,Bot*
G04 #@! TF.FilePolarity,Positive*
%FSLAX46Y46*%
G04 Gerber Fmt 4.6, Leading zero omitted, Abs format (unit mm)*
G04 Created by KiCad (PCBNEW (5.1.6)-1) date 2021-04-18 21:34:56*
%MOMM*%
%LPD*%
G01*
G04 APERTURE LIST*
%ADD10C,0.150000*%
%ADD11C,0.120000*%
%ADD12R,1.270000X1.680000*%
%ADD13O,1.700000X1.700000*%
%ADD14R,1.700000X1.700000*%
%ADD15C,6.000000*%
%ADD16O,1.750000X1.200000*%
%ADD17O,2.000000X1.905000*%
%ADD18R,2.000000X1.905000*%
%ADD19C,3.000000*%
%ADD20R,3.000000X3.000000*%
%ADD21O,1.800000X3.600000*%
%ADD22O,1.600000X1.600000*%
%ADD23C,1.600000*%
%ADD24O,1.400000X1.400000*%
%ADD25C,1.400000*%
%ADD26C,2.400000*%
%ADD27R,2.400000X2.400000*%
%ADD28O,2.200000X2.200000*%
%ADD29R,2.200000X2.200000*%
%ADD30C,0.100000*%
%ADD31R,1.600000X1.600000*%
G04 APERTURE END LIST*
D10*
X105741690Y-106386380D02*
X105551214Y-106386380D01*
X105455976Y-106434000D01*
X105360738Y-106529238D01*
X105313119Y-106719714D01*
X105313119Y-107053047D01*
X105360738Y-107243523D01*
X105455976Y-107338761D01*
X105551214Y-107386380D01*
X105741690Y-107386380D01*
X105836928Y-107338761D01*
X105932166Y-107243523D01*
X105979785Y-107053047D01*
X105979785Y-106719714D01*
X105932166Y-106529238D01*
X105836928Y-106434000D01*
X105741690Y-106386380D01*
X104884547Y-106719714D02*
X104884547Y-107719714D01*
X104884547Y-106767333D02*
X104789309Y-106719714D01*
X104598833Y-106719714D01*
X104503595Y-106767333D01*
X104455976Y-106814952D01*
X104408357Y-106910190D01*
X104408357Y-107195904D01*
X104455976Y-107291142D01*
X104503595Y-107338761D01*
X104598833Y-107386380D01*
X104789309Y-107386380D01*
X104884547Y-107338761D01*
X104122642Y-106719714D02*
X103741690Y-106719714D01*
X103979785Y-106386380D02*
X103979785Y-107243523D01*
X103932166Y-107338761D01*
X103836928Y-107386380D01*
X103741690Y-107386380D01*
X103408357Y-107386380D02*
X103408357Y-106719714D01*
X103408357Y-106386380D02*
X103455976Y-106434000D01*
X103408357Y-106481619D01*
X103360738Y-106434000D01*
X103408357Y-106386380D01*
X103408357Y-106481619D01*
X102789309Y-107386380D02*
X102884547Y-107338761D01*
X102932166Y-107291142D01*
X102979785Y-107195904D01*
X102979785Y-106910190D01*
X102932166Y-106814952D01*
X102884547Y-106767333D01*
X102789309Y-106719714D01*
X102646452Y-106719714D01*
X102551214Y-106767333D01*
X102503595Y-106814952D01*
X102455976Y-106910190D01*
X102455976Y-107195904D01*
X102503595Y-107291142D01*
X102551214Y-107338761D01*
X102646452Y-107386380D01*
X102789309Y-107386380D01*
X102027404Y-106719714D02*
X102027404Y-107386380D01*
X102027404Y-106814952D02*
X101979785Y-106767333D01*
X101884547Y-106719714D01*
X101741690Y-106719714D01*
X101646452Y-106767333D01*
X101598833Y-106862571D01*
X101598833Y-107386380D01*
X100408357Y-107100666D02*
X99932166Y-107100666D01*
X100503595Y-107386380D02*
X100170261Y-106386380D01*
X99836928Y-107386380D01*
X99503595Y-107291142D02*
X99455976Y-107338761D01*
X99503595Y-107386380D01*
X99551214Y-107338761D01*
X99503595Y-107291142D01*
X99503595Y-107386380D01*
X99503595Y-106767333D02*
X99455976Y-106814952D01*
X99503595Y-106862571D01*
X99551214Y-106814952D01*
X99503595Y-106767333D01*
X99503595Y-106862571D01*
X98313119Y-107338761D02*
X98170261Y-107386380D01*
X97932166Y-107386380D01*
X97836928Y-107338761D01*
X97789309Y-107291142D01*
X97741690Y-107195904D01*
X97741690Y-107100666D01*
X97789309Y-107005428D01*
X97836928Y-106957809D01*
X97932166Y-106910190D01*
X98122642Y-106862571D01*
X98217880Y-106814952D01*
X98265500Y-106767333D01*
X98313119Y-106672095D01*
X98313119Y-106576857D01*
X98265500Y-106481619D01*
X98217880Y-106434000D01*
X98122642Y-106386380D01*
X97884547Y-106386380D01*
X97741690Y-106434000D01*
X97170261Y-107386380D02*
X97265500Y-107338761D01*
X97313119Y-107291142D01*
X97360738Y-107195904D01*
X97360738Y-106910190D01*
X97313119Y-106814952D01*
X97265500Y-106767333D01*
X97170261Y-106719714D01*
X97027404Y-106719714D01*
X96932166Y-106767333D01*
X96884547Y-106814952D01*
X96836928Y-106910190D01*
X96836928Y-107195904D01*
X96884547Y-107291142D01*
X96932166Y-107338761D01*
X97027404Y-107386380D01*
X97170261Y-107386380D01*
X96265500Y-107386380D02*
X96360738Y-107338761D01*
X96408357Y-107243523D01*
X96408357Y-106386380D01*
X95455976Y-107386380D02*
X95455976Y-106386380D01*
X95455976Y-107338761D02*
X95551214Y-107386380D01*
X95741690Y-107386380D01*
X95836928Y-107338761D01*
X95884547Y-107291142D01*
X95932166Y-107195904D01*
X95932166Y-106910190D01*
X95884547Y-106814952D01*
X95836928Y-106767333D01*
X95741690Y-106719714D01*
X95551214Y-106719714D01*
X95455976Y-106767333D01*
X94598833Y-107338761D02*
X94694071Y-107386380D01*
X94884547Y-107386380D01*
X94979785Y-107338761D01*
X95027404Y-107243523D01*
X95027404Y-106862571D01*
X94979785Y-106767333D01*
X94884547Y-106719714D01*
X94694071Y-106719714D01*
X94598833Y-106767333D01*
X94551214Y-106862571D01*
X94551214Y-106957809D01*
X95027404Y-107053047D01*
X94122642Y-107386380D02*
X94122642Y-106719714D01*
X94122642Y-106910190D02*
X94075023Y-106814952D01*
X94027404Y-106767333D01*
X93932166Y-106719714D01*
X93836928Y-106719714D01*
X92789309Y-107338761D02*
X92694071Y-107386380D01*
X92503595Y-107386380D01*
X92408357Y-107338761D01*
X92360738Y-107243523D01*
X92360738Y-107195904D01*
X92408357Y-107100666D01*
X92503595Y-107053047D01*
X92646452Y-107053047D01*
X92741690Y-107005428D01*
X92789309Y-106910190D01*
X92789309Y-106862571D01*
X92741690Y-106767333D01*
X92646452Y-106719714D01*
X92503595Y-106719714D01*
X92408357Y-106767333D01*
X91789309Y-107386380D02*
X91884547Y-107338761D01*
X91932166Y-107291142D01*
X91979785Y-107195904D01*
X91979785Y-106910190D01*
X91932166Y-106814952D01*
X91884547Y-106767333D01*
X91789309Y-106719714D01*
X91646452Y-106719714D01*
X91551214Y-106767333D01*
X91503595Y-106814952D01*
X91455976Y-106910190D01*
X91455976Y-107195904D01*
X91503595Y-107291142D01*
X91551214Y-107338761D01*
X91646452Y-107386380D01*
X91789309Y-107386380D01*
X90598833Y-107338761D02*
X90694071Y-107386380D01*
X90884547Y-107386380D01*
X90979785Y-107338761D01*
X91027404Y-107291142D01*
X91075023Y-107195904D01*
X91075023Y-106910190D01*
X91027404Y-106814952D01*
X90979785Y-106767333D01*
X90884547Y-106719714D01*
X90694071Y-106719714D01*
X90598833Y-106767333D01*
X90170261Y-107386380D02*
X90170261Y-106386380D01*
X90075023Y-107005428D02*
X89789309Y-107386380D01*
X89789309Y-106719714D02*
X90170261Y-107100666D01*
X88979785Y-107338761D02*
X89075023Y-107386380D01*
X89265500Y-107386380D01*
X89360738Y-107338761D01*
X89408357Y-107243523D01*
X89408357Y-106862571D01*
X89360738Y-106767333D01*
X89265500Y-106719714D01*
X89075023Y-106719714D01*
X88979785Y-106767333D01*
X88932166Y-106862571D01*
X88932166Y-106957809D01*
X89408357Y-107053047D01*
X88646452Y-106719714D02*
X88265500Y-106719714D01*
X88503595Y-106386380D02*
X88503595Y-107243523D01*
X88455976Y-107338761D01*
X88360738Y-107386380D01*
X88265500Y-107386380D01*
X87170261Y-107386380D02*
X87170261Y-106386380D01*
X86741690Y-107386380D02*
X86741690Y-106862571D01*
X86789309Y-106767333D01*
X86884547Y-106719714D01*
X87027404Y-106719714D01*
X87122642Y-106767333D01*
X87170261Y-106814952D01*
X85884547Y-107338761D02*
X85979785Y-107386380D01*
X86170261Y-107386380D01*
X86265500Y-107338761D01*
X86313119Y-107243523D01*
X86313119Y-106862571D01*
X86265500Y-106767333D01*
X86170261Y-106719714D01*
X85979785Y-106719714D01*
X85884547Y-106767333D01*
X85836928Y-106862571D01*
X85836928Y-106957809D01*
X86313119Y-107053047D01*
X84979785Y-107386380D02*
X84979785Y-106862571D01*
X85027404Y-106767333D01*
X85122642Y-106719714D01*
X85313119Y-106719714D01*
X85408357Y-106767333D01*
X84979785Y-107338761D02*
X85075023Y-107386380D01*
X85313119Y-107386380D01*
X85408357Y-107338761D01*
X85455976Y-107243523D01*
X85455976Y-107148285D01*
X85408357Y-107053047D01*
X85313119Y-107005428D01*
X85075023Y-107005428D01*
X84979785Y-106957809D01*
X84075023Y-107386380D02*
X84075023Y-106386380D01*
X84075023Y-107338761D02*
X84170261Y-107386380D01*
X84360738Y-107386380D01*
X84455976Y-107338761D01*
X84503595Y-107291142D01*
X84551214Y-107195904D01*
X84551214Y-106910190D01*
X84503595Y-106814952D01*
X84455976Y-106767333D01*
X84360738Y-106719714D01*
X84170261Y-106719714D01*
X84075023Y-106767333D01*
X83217880Y-107338761D02*
X83313119Y-107386380D01*
X83503595Y-107386380D01*
X83598833Y-107338761D01*
X83646452Y-107243523D01*
X83646452Y-106862571D01*
X83598833Y-106767333D01*
X83503595Y-106719714D01*
X83313119Y-106719714D01*
X83217880Y-106767333D01*
X83170261Y-106862571D01*
X83170261Y-106957809D01*
X83646452Y-107053047D01*
X82741690Y-107386380D02*
X82741690Y-106719714D01*
X82741690Y-106910190D02*
X82694071Y-106814952D01*
X82646452Y-106767333D01*
X82551214Y-106719714D01*
X82455976Y-106719714D01*
X81360738Y-107386380D02*
X81360738Y-106386380D01*
X80932166Y-107386380D02*
X80932166Y-106862571D01*
X80979785Y-106767333D01*
X81075023Y-106719714D01*
X81217880Y-106719714D01*
X81313119Y-106767333D01*
X81360738Y-106814952D01*
X80075023Y-107338761D02*
X80170261Y-107386380D01*
X80360738Y-107386380D01*
X80455976Y-107338761D01*
X80503595Y-107243523D01*
X80503595Y-106862571D01*
X80455976Y-106767333D01*
X80360738Y-106719714D01*
X80170261Y-106719714D01*
X80075023Y-106767333D01*
X80027404Y-106862571D01*
X80027404Y-106957809D01*
X80503595Y-107053047D01*
X79598833Y-107386380D02*
X79598833Y-106719714D01*
X79598833Y-106910190D02*
X79551214Y-106814952D01*
X79503595Y-106767333D01*
X79408357Y-106719714D01*
X79313119Y-106719714D01*
X78598833Y-107338761D02*
X78694071Y-107386380D01*
X78884547Y-107386380D01*
X78979785Y-107338761D01*
X79027404Y-107243523D01*
X79027404Y-106862571D01*
X78979785Y-106767333D01*
X78884547Y-106719714D01*
X78694071Y-106719714D01*
X78598833Y-106767333D01*
X78551214Y-106862571D01*
X78551214Y-106957809D01*
X79027404Y-107053047D01*
D11*
X103765000Y-99204000D02*
X104515000Y-99204000D01*
X85985000Y-104504000D02*
X86735000Y-104504000D01*
X108845000Y-99204000D02*
X109595000Y-99204000D01*
X129650000Y-104504000D02*
X129650000Y-99204000D01*
X78630000Y-104504000D02*
X78630000Y-99204000D01*
X121545000Y-104504000D02*
X122295000Y-104504000D01*
X101225000Y-104504000D02*
X101975000Y-104504000D01*
X113925000Y-99204000D02*
X114675000Y-99204000D01*
X98685000Y-104504000D02*
X99435000Y-104504000D01*
X85985000Y-99204000D02*
X86735000Y-99204000D01*
X83445000Y-99204000D02*
X84195000Y-99204000D01*
X83445000Y-104504000D02*
X84195000Y-104504000D01*
X124085000Y-99204000D02*
X124835000Y-99204000D01*
X80905000Y-99204000D02*
X81655000Y-99204000D01*
X78630000Y-99204000D02*
X79115000Y-99204000D01*
X98685000Y-99204000D02*
X99435000Y-99204000D01*
X111385000Y-104504000D02*
X112135000Y-104504000D01*
X119005000Y-99204000D02*
X119755000Y-99204000D01*
X111385000Y-99204000D02*
X112135000Y-99204000D01*
X93605000Y-104504000D02*
X94355000Y-104504000D01*
X124085000Y-104504000D02*
X124835000Y-104504000D01*
X91065000Y-99204000D02*
X91815000Y-99204000D01*
X80905000Y-104504000D02*
X81655000Y-104504000D01*
X129650000Y-99204000D02*
X129165000Y-99204000D01*
X116465000Y-104504000D02*
X117215000Y-104504000D01*
X91065000Y-104504000D02*
X91815000Y-104504000D01*
X79115000Y-104504000D02*
X78630000Y-104504000D01*
X106305000Y-104504000D02*
X107055000Y-104504000D01*
X96145000Y-99204000D02*
X96895000Y-99204000D01*
X88525000Y-99204000D02*
X89275000Y-99204000D01*
X126625000Y-99204000D02*
X127375000Y-99204000D01*
X119005000Y-104504000D02*
X119755000Y-104504000D01*
X116465000Y-99204000D02*
X117215000Y-99204000D01*
X108845000Y-104504000D02*
X109595000Y-104504000D01*
X103765000Y-104504000D02*
X104515000Y-104504000D01*
X96145000Y-104504000D02*
X96895000Y-104504000D01*
X93605000Y-99204000D02*
X94355000Y-99204000D01*
X88525000Y-104504000D02*
X89275000Y-104504000D01*
X79115000Y-105414000D02*
X79115000Y-104504000D01*
X101225000Y-99204000D02*
X101975000Y-99204000D01*
X121545000Y-99204000D02*
X122295000Y-99204000D01*
X129165000Y-104504000D02*
X129650000Y-104504000D01*
X126625000Y-104504000D02*
X127375000Y-104504000D01*
X113925000Y-104504000D02*
X114675000Y-104504000D01*
X106305000Y-99204000D02*
X107055000Y-99204000D01*
D10*
X129158500Y-107386380D02*
X129491833Y-106910190D01*
X129729928Y-107386380D02*
X129729928Y-106386380D01*
X129348976Y-106386380D01*
X129253738Y-106434000D01*
X129206119Y-106481619D01*
X129158500Y-106576857D01*
X129158500Y-106719714D01*
X129206119Y-106814952D01*
X129253738Y-106862571D01*
X129348976Y-106910190D01*
X129729928Y-106910190D01*
X128301357Y-107386380D02*
X128301357Y-106862571D01*
X128348976Y-106767333D01*
X128444214Y-106719714D01*
X128634690Y-106719714D01*
X128729928Y-106767333D01*
X128301357Y-107338761D02*
X128396595Y-107386380D01*
X128634690Y-107386380D01*
X128729928Y-107338761D01*
X128777547Y-107243523D01*
X128777547Y-107148285D01*
X128729928Y-107053047D01*
X128634690Y-107005428D01*
X128396595Y-107005428D01*
X128301357Y-106957809D01*
X127872785Y-107338761D02*
X127777547Y-107386380D01*
X127587071Y-107386380D01*
X127491833Y-107338761D01*
X127444214Y-107243523D01*
X127444214Y-107195904D01*
X127491833Y-107100666D01*
X127587071Y-107053047D01*
X127729928Y-107053047D01*
X127825166Y-107005428D01*
X127872785Y-106910190D01*
X127872785Y-106862571D01*
X127825166Y-106767333D01*
X127729928Y-106719714D01*
X127587071Y-106719714D01*
X127491833Y-106767333D01*
X127015642Y-106719714D02*
X127015642Y-107719714D01*
X127015642Y-106767333D02*
X126920404Y-106719714D01*
X126729928Y-106719714D01*
X126634690Y-106767333D01*
X126587071Y-106814952D01*
X126539452Y-106910190D01*
X126539452Y-107195904D01*
X126587071Y-107291142D01*
X126634690Y-107338761D01*
X126729928Y-107386380D01*
X126920404Y-107386380D01*
X127015642Y-107338761D01*
X126110880Y-107386380D02*
X126110880Y-106386380D01*
X126110880Y-106767333D02*
X126015642Y-106719714D01*
X125825166Y-106719714D01*
X125729928Y-106767333D01*
X125682309Y-106814952D01*
X125634690Y-106910190D01*
X125634690Y-107195904D01*
X125682309Y-107291142D01*
X125729928Y-107338761D01*
X125825166Y-107386380D01*
X126015642Y-107386380D01*
X126110880Y-107338761D01*
X124825166Y-107338761D02*
X124920404Y-107386380D01*
X125110880Y-107386380D01*
X125206119Y-107338761D01*
X125253738Y-107243523D01*
X125253738Y-106862571D01*
X125206119Y-106767333D01*
X125110880Y-106719714D01*
X124920404Y-106719714D01*
X124825166Y-106767333D01*
X124777547Y-106862571D01*
X124777547Y-106957809D01*
X125253738Y-107053047D01*
X124348976Y-107386380D02*
X124348976Y-106719714D01*
X124348976Y-106910190D02*
X124301357Y-106814952D01*
X124253738Y-106767333D01*
X124158500Y-106719714D01*
X124063261Y-106719714D01*
X123729928Y-107386380D02*
X123729928Y-106719714D01*
X123729928Y-106910190D02*
X123682309Y-106814952D01*
X123634690Y-106767333D01*
X123539452Y-106719714D01*
X123444214Y-106719714D01*
X123206119Y-106719714D02*
X122968023Y-107386380D01*
X122729928Y-106719714D02*
X122968023Y-107386380D01*
X123063261Y-107624476D01*
X123110880Y-107672095D01*
X123206119Y-107719714D01*
X121587071Y-107386380D02*
X121587071Y-106386380D01*
X121206119Y-106386380D01*
X121110880Y-106434000D01*
X121063261Y-106481619D01*
X121015642Y-106576857D01*
X121015642Y-106719714D01*
X121063261Y-106814952D01*
X121110880Y-106862571D01*
X121206119Y-106910190D01*
X121587071Y-106910190D01*
X120587071Y-107386380D02*
X120587071Y-106386380D01*
%LPC*%
D12*
X82550000Y-104574000D03*
X92710000Y-104574000D03*
X107950000Y-104574000D03*
X80010000Y-104574000D03*
X100330000Y-104574000D03*
X105410000Y-104574000D03*
X113030000Y-104574000D03*
X115570000Y-104574000D03*
X118110000Y-104574000D03*
X90170000Y-104574000D03*
X110490000Y-104574000D03*
X120650000Y-104574000D03*
X123190000Y-104574000D03*
X125730000Y-104574000D03*
X128270000Y-104574000D03*
X87630000Y-104574000D03*
X95250000Y-104574000D03*
X97790000Y-104574000D03*
X85090000Y-104574000D03*
X102870000Y-104574000D03*
X102870000Y-99134000D03*
X105410000Y-99134000D03*
X115570000Y-99134000D03*
X120650000Y-99134000D03*
X97790000Y-99134000D03*
X128270000Y-99134000D03*
X87630000Y-99134000D03*
X107950000Y-99134000D03*
X125730000Y-99134000D03*
X85090000Y-99134000D03*
X110490000Y-99134000D03*
X118110000Y-99134000D03*
X92710000Y-99134000D03*
X80010000Y-99134000D03*
X100330000Y-99134000D03*
X95250000Y-99134000D03*
X123190000Y-99134000D03*
X113030000Y-99134000D03*
X90170000Y-99134000D03*
X82550000Y-99134000D03*
D13*
X105410000Y-103124000D03*
X115570000Y-103124000D03*
X107950000Y-103124000D03*
X125730000Y-100584000D03*
D14*
X80010000Y-100584000D03*
D13*
X118110000Y-100584000D03*
X128270000Y-100584000D03*
X100330000Y-103124000D03*
X120650000Y-100584000D03*
X85090000Y-100584000D03*
X120650000Y-103124000D03*
X82550000Y-103124000D03*
X82550000Y-100584000D03*
X95250000Y-103124000D03*
D15*
X133140000Y-101854000D03*
D13*
X102870000Y-103124000D03*
X123190000Y-100584000D03*
X110490000Y-103124000D03*
X107950000Y-100584000D03*
X110490000Y-100584000D03*
X102870000Y-100584000D03*
X97790000Y-100584000D03*
X87630000Y-103124000D03*
X92710000Y-103124000D03*
D15*
X75140000Y-150854000D03*
D13*
X128270000Y-103124000D03*
D15*
X75140000Y-101854000D03*
D13*
X87630000Y-100584000D03*
X90170000Y-100584000D03*
X123190000Y-103124000D03*
X97790000Y-103124000D03*
X85090000Y-103124000D03*
X113030000Y-103124000D03*
X125730000Y-103124000D03*
X95250000Y-100584000D03*
X113030000Y-100584000D03*
X80010000Y-103124000D03*
X100330000Y-100584000D03*
X92710000Y-100584000D03*
D15*
X133140000Y-150854000D03*
D13*
X118110000Y-103124000D03*
X90170000Y-103124000D03*
X115570000Y-100584000D03*
X105410000Y-100584000D03*
D16*
X61722000Y-80739500D03*
X61722000Y-78739500D03*
X61722000Y-76739500D03*
G36*
G01*
X61096999Y-74139500D02*
X62347001Y-74139500D01*
G75*
G02*
X62597000Y-74389499I0J-249999D01*
G01*
X62597000Y-75089501D01*
G75*
G02*
X62347001Y-75339500I-249999J0D01*
G01*
X61096999Y-75339500D01*
G75*
G02*
X60847000Y-75089501I0J249999D01*
G01*
X60847000Y-74389499D01*
G75*
G02*
X61096999Y-74139500I249999J0D01*
G01*
G37*
D17*
X69278500Y-83820000D03*
X69278500Y-81280000D03*
D18*
X69278500Y-78740000D03*
D19*
X197802500Y-41418500D03*
D20*
X197802500Y-46418500D03*
D19*
X159766000Y-41418500D03*
D20*
X159766000Y-46418500D03*
D19*
X121920000Y-41418500D03*
D20*
X121920000Y-46418500D03*
D19*
X83820000Y-41418500D03*
D20*
X83820000Y-46418500D03*
D16*
X174244000Y-145128500D03*
X174244000Y-143128500D03*
X174244000Y-141128500D03*
G36*
G01*
X173618999Y-138528500D02*
X174869001Y-138528500D01*
G75*
G02*
X175119000Y-138778499I0J-249999D01*
G01*
X175119000Y-139478501D01*
G75*
G02*
X174869001Y-139728500I-249999J0D01*
G01*
X173618999Y-139728500D01*
G75*
G02*
X173369000Y-139478501I0J249999D01*
G01*
X173369000Y-138778499D01*
G75*
G02*
X173618999Y-138528500I249999J0D01*
G01*
G37*
X174244000Y-124555000D03*
X174244000Y-122555000D03*
G36*
G01*
X173618999Y-119955000D02*
X174869001Y-119955000D01*
G75*
G02*
X175119000Y-120204999I0J-249999D01*
G01*
X175119000Y-120905001D01*
G75*
G02*
X174869001Y-121155000I-249999J0D01*
G01*
X173618999Y-121155000D01*
G75*
G02*
X173369000Y-120905001I0J249999D01*
G01*
X173369000Y-120204999D01*
G75*
G02*
X173618999Y-119955000I249999J0D01*
G01*
G37*
X174180500Y-109410000D03*
X174180500Y-107410000D03*
G36*
G01*
X173555499Y-104810000D02*
X174805501Y-104810000D01*
G75*
G02*
X175055500Y-105059999I0J-249999D01*
G01*
X175055500Y-105760001D01*
G75*
G02*
X174805501Y-106010000I-249999J0D01*
G01*
X173555499Y-106010000D01*
G75*
G02*
X173305500Y-105760001I0J249999D01*
G01*
X173305500Y-105059999D01*
G75*
G02*
X173555499Y-104810000I249999J0D01*
G01*
G37*
D21*
X74558000Y-57150000D03*
X76258000Y-62230000D03*
X77958000Y-57150000D03*
X79658000Y-62230000D03*
X81358000Y-57150000D03*
X83058000Y-62230000D03*
X84758000Y-57150000D03*
X86458000Y-62230000D03*
X88158000Y-57150000D03*
X89858000Y-62230000D03*
X91558000Y-57150000D03*
X112580000Y-57150000D03*
X114280000Y-62230000D03*
X115980000Y-57150000D03*
X117680000Y-62230000D03*
X119380000Y-57150000D03*
X121080000Y-62230000D03*
X122780000Y-57150000D03*
X124480000Y-62230000D03*
X126180000Y-57150000D03*
X127880000Y-62230000D03*
X129580000Y-57150000D03*
X150504000Y-57150000D03*
X152204000Y-62230000D03*
X153904000Y-57150000D03*
X155604000Y-62230000D03*
X157304000Y-57150000D03*
X159004000Y-62230000D03*
X160704000Y-57150000D03*
X162404000Y-62230000D03*
X164104000Y-57150000D03*
X165804000Y-62230000D03*
X167504000Y-57150000D03*
X188604000Y-57150000D03*
X190304000Y-62230000D03*
X192004000Y-57150000D03*
X193704000Y-62230000D03*
X195404000Y-57150000D03*
X197104000Y-62230000D03*
X198804000Y-57150000D03*
X200504000Y-62230000D03*
X202204000Y-57150000D03*
X203904000Y-62230000D03*
X205604000Y-57150000D03*
D22*
X73596500Y-89154000D03*
D23*
X63436500Y-89154000D03*
D22*
X134429500Y-74930000D03*
D23*
X134429500Y-85090000D03*
D22*
X137477500Y-85090000D03*
D23*
X137477500Y-74930000D03*
D22*
X140525500Y-74930000D03*
D23*
X140525500Y-85090000D03*
D22*
X143573500Y-85090000D03*
D23*
X143573500Y-74930000D03*
D22*
X73533000Y-92265500D03*
D23*
X63373000Y-92265500D03*
D22*
X65278000Y-96266000D03*
D23*
X65278000Y-106426000D03*
D22*
X68326000Y-106426000D03*
D23*
X68326000Y-96266000D03*
D22*
X59182000Y-96266000D03*
D23*
X59182000Y-106426000D03*
D22*
X62230000Y-106426000D03*
D23*
X62230000Y-96266000D03*
D24*
X71247000Y-64262000D03*
D25*
X71247000Y-62362000D03*
D24*
X108458000Y-64892000D03*
D25*
X108458000Y-62992000D03*
D24*
X146215100Y-64401780D03*
D25*
X146215100Y-62501780D03*
D24*
X184404000Y-63622000D03*
D25*
X184404000Y-61722000D03*
D23*
X59944000Y-64730000D03*
X59944000Y-62230000D03*
X95758000Y-64770000D03*
X95758000Y-62270000D03*
X134477760Y-64569340D03*
X134477760Y-62069340D03*
X171958000Y-64770000D03*
X171958000Y-62270000D03*
X71969000Y-74041000D03*
X69469000Y-74041000D03*
X95504000Y-58189500D03*
X95504000Y-55689500D03*
X133159500Y-58189500D03*
X133159500Y-55689500D03*
X171005500Y-58189500D03*
X171005500Y-55689500D03*
X209359500Y-61698500D03*
X209359500Y-64198500D03*
D26*
X214804000Y-76708000D03*
D27*
X209804000Y-76708000D03*
D28*
X75311000Y-43878500D03*
D29*
X75311000Y-40068500D03*
G36*
G01*
X73013740Y-49985760D02*
X73013740Y-49985760D01*
G75*
G02*
X73013740Y-51541394I-777817J-777817D01*
G01*
X73013740Y-51541394D01*
G75*
G02*
X71458106Y-51541394I-777817J777817D01*
G01*
X71458106Y-51541394D01*
G75*
G02*
X71458106Y-49985760I777817J777817D01*
G01*
X71458106Y-49985760D01*
G75*
G02*
X73013740Y-49985760I777817J-777817D01*
G01*
G37*
D30*
G36*
X74930000Y-46513865D02*
G01*
X76485635Y-48069500D01*
X74930000Y-49625135D01*
X73374365Y-48069500D01*
X74930000Y-46513865D01*
G37*
D28*
X109474000Y-45339000D03*
D29*
X113284000Y-45339000D03*
D28*
X109537500Y-49022000D03*
D29*
X113347500Y-49022000D03*
D28*
X147574000Y-45466000D03*
D29*
X151384000Y-45466000D03*
D28*
X147574000Y-49149000D03*
D29*
X151384000Y-49149000D03*
D28*
X185674000Y-45593000D03*
D29*
X189484000Y-45593000D03*
D28*
X185674000Y-49276000D03*
D29*
X189484000Y-49276000D03*
D23*
X88178000Y-52832000D03*
X90678000Y-52832000D03*
X81574000Y-52832000D03*
X84074000Y-52832000D03*
X75351000Y-52959000D03*
X77851000Y-52959000D03*
X126024000Y-52832000D03*
X128524000Y-52832000D03*
X119674000Y-52832000D03*
X122174000Y-52832000D03*
X113514500Y-52895500D03*
X116014500Y-52895500D03*
X164124000Y-52832000D03*
X166624000Y-52832000D03*
X157520000Y-52832000D03*
X160020000Y-52832000D03*
X151551000Y-52832000D03*
X154051000Y-52832000D03*
X202160500Y-52832000D03*
X204660500Y-52832000D03*
X195580000Y-52832000D03*
X198080000Y-52832000D03*
X189397000Y-52705000D03*
X191897000Y-52705000D03*
D22*
X115570000Y-76708000D03*
X115570000Y-91948000D03*
X80010000Y-76708000D03*
X113030000Y-91948000D03*
X82550000Y-76708000D03*
X110490000Y-91948000D03*
X85090000Y-76708000D03*
X107950000Y-91948000D03*
X87630000Y-76708000D03*
X105410000Y-91948000D03*
X90170000Y-76708000D03*
X102870000Y-91948000D03*
X92710000Y-76708000D03*
X100330000Y-91948000D03*
X95250000Y-76708000D03*
X97790000Y-91948000D03*
X97790000Y-76708000D03*
X95250000Y-91948000D03*
X100330000Y-76708000D03*
X92710000Y-91948000D03*
X102870000Y-76708000D03*
X90170000Y-91948000D03*
X105410000Y-76708000D03*
X87630000Y-91948000D03*
X107950000Y-76708000D03*
X85090000Y-91948000D03*
X110490000Y-76708000D03*
X82550000Y-91948000D03*
X113030000Y-76708000D03*
D31*
X80010000Y-91948000D03*
D19*
X194796400Y-80479900D03*
D20*
X199796400Y-80479900D03*
D13*
X178511200Y-77152500D03*
X181051200Y-77152500D03*
X183591200Y-77152500D03*
D14*
X186131200Y-77152500D03*
M02*
